<svg xmlns="http://www.w3.org/2000/svg" viewBox="0 0 222.56 58.26"><defs><style>.a{fill:#231f20;}</style></defs><title>DEMO</title><path class="a" d="M0,1.06C6.43.65,13.26.33,21.81.33c17.66,0,23.92,6.59,23.92,28.8S39.47,57.94,21.81,57.94c-8.46,0-15.38-.33-21.81-.73Zm12.37,47c2.85,0,6,.08,9.44.08,8.38,0,10.9-4.31,10.9-19S30.19,10,21.81,10l-9.44.08Z"/><path class="a" d="M93.26,56.64c-7.65.81-17.34.81-26,.81-7.49,0-12.29-4.39-12.37-11.31v-34C54.93,5.21,59.73.81,67.22.81c8.7,0,18.39,0,26,.82l-.57,9.19H71.12C68.44,10.82,67.3,12,67.3,15v8.55H89.68v9H67.3V43.29c0,3,1.14,4.23,3.82,4.23H92.69Z"/><path class="a" d="M159.25,1.06c3,0,4.56,1.63,4.64,4.64l2.2,51.51H154.37L152.5,10.74h-1.39l-8.46,34.75c-.57,2.68-2.28,4-5.05,4h-8.13c-2.77,0-4.48-1.31-5-4l-8.54-34.75h-1.39l-1.62,46.47H101.15l2-51.51c.17-3,1.63-4.64,4.64-4.64h12a4.58,4.58,0,0,1,4.89,4l6.83,28c.65,2.68,1.06,5.29,1.47,7.89H134c.49-2.6.9-5.21,1.47-7.89l6.75-28a4.74,4.74,0,0,1,5-4Z"/><path class="a" d="M222.56,29.13c0,22.54-6.35,29.13-24.09,29.13s-24-6.59-24-29.13S180.73,0,198.47,0,222.56,6.59,222.56,29.13Zm-35.07,0c0,14.89,2.52,19.13,11,19.13s11-4.24,11-19.13S206.94,10,198.47,10,187.49,14.24,187.49,29.13Z"/></svg>