<svg xmlns="http://www.w3.org/2000/svg" viewBox="0 0 218.27 218.27"><title>Instruments</title><path d="M216.72,95.71l-25.5-10.86a85.17,85.17,0,0,0-6.88-16.59l10.39-25.68a2.55,2.55,0,0,0-.56-2.75l-15.7-15.7a2.55,2.55,0,0,0-2.75-.56L150,33.93a84.66,84.66,0,0,0-16.59-6.88L122.59,1.55A2.54,2.54,0,0,0,120.25,0H98.05a2.54,2.54,0,0,0-2.34,1.55L84.85,27.05a85.76,85.76,0,0,0-16.59,6.87L42.58,23.54a2.55,2.55,0,0,0-2.75.56L24.13,39.8a2.55,2.55,0,0,0-.56,2.75L33.93,68.26a85.17,85.17,0,0,0-6.88,16.59L1.55,95.67A2.54,2.54,0,0,0,0,98v22.21a2.54,2.54,0,0,0,1.55,2.34l25.5,10.85A85.5,85.5,0,0,0,33.92,150L23.54,175.69a2.55,2.55,0,0,0,.56,2.75l15.7,15.7a2.55,2.55,0,0,0,2.75.56l25.71-10.36a85.17,85.17,0,0,0,16.59,6.88l10.82,25.5A2.54,2.54,0,0,0,98,218.27h22.21a2.54,2.54,0,0,0,2.34-1.55l10.85-25.5A84.91,84.91,0,0,0,150,184.34l25.69,10.39a2.55,2.55,0,0,0,2.75-.56l15.7-15.7a2.55,2.55,0,0,0,.56-2.75L184.34,150a84.82,84.82,0,0,0,6.88-16.58l25.5-10.83a2.53,2.53,0,0,0,1.55-2.34V98.05A2.54,2.54,0,0,0,216.72,95.71Zm-65.15,55.86a60,60,0,1,1,17.58-42.44A59.6,59.6,0,0,1,151.57,151.57Z"/></svg>