<svg xmlns="http://www.w3.org/2000/svg" viewBox="0 0 299.28 389.39"><title>lock</title><path d="M278.05,157.25h-7.59V121.74C270.46,56.06,218.34,1.2,153.2,0c-1.78,0-5.34,0-7.11,0C80.94,1.2,28.82,56.06,28.82,121.74v35.51H21.23C9.54,157.25,0,169.32,0,184.22v178.1c0,14.89,9.54,27.07,21.23,27.07H278.05c11.7,0,21.23-12.18,21.23-27.07V184.22c0-14.9-9.53-27-21.23-27ZM173.7,273.09v53.82a11.48,11.48,0,0,1-11.32,11.37H136.91a11.49,11.49,0,0,1-11.33-11.37V273.09a32,32,0,0,1-9.46-23c0-17.06,13.19-31.73,30-32.41,1.77-.07,5.33-.07,7.11,0,16.78.68,30,15.35,30,32.41a32,32,0,0,1-9.47,23Zm46.76-115.84H78.83V121.74c0-39.12,31.79-71.47,70.81-71.47s70.82,32.35,70.82,71.47Z"/></svg>