<svg xmlns="http://www.w3.org/2000/svg" viewBox="0 0 543.75 362.5"><defs><style>.a{fill:#414042;}</style></defs><title>Notification</title><path class="a" d="M72.5,362.5H471.25A71.86,71.86,0,0,0,510,351.09L335,201.33l-.35.32c-16.81,13.9-39.11,21.55-62.8,21.55s-46-7.65-62.79-21.55l-.36-.31h0l-175,149.75A71.84,71.84,0,0,0,72.5,362.5Z"/><path class="a" d="M44,23.27l.36.3L223.11,185c12.9,10.59,30.21,16.42,48.76,16.42s35.87-5.83,48.76-16.42L499.78,23.27a65.28,65.28,0,0,0,11.13-11.33A71.9,71.9,0,0,0,471.25,0H72.5A71.9,71.9,0,0,0,32.84,11.94,65.15,65.15,0,0,0,44,23.27Z"/><path class="a" d="M513.83,39.87,351.3,186.63l175.3,150A72,72,0,0,0,543.75,290V72.5a72.13,72.13,0,0,0-16.57-46A91,91,0,0,1,513.83,39.87Z"/><path class="a" d="M192.44,186.64,29.91,39.87A91.39,91.39,0,0,1,16.57,26.5,72.13,72.13,0,0,0,0,72.5V290a72.1,72.1,0,0,0,17.15,46.64Z"/></svg>