<svg xmlns="http://www.w3.org/2000/svg" viewBox="0 0 380 356.25"><title>Portfolio</title><rect x="178.87" y="200.39" width="22.27" height="22.27"/><path d="M259.11,222.66H223.4v11.13a11.13,11.13,0,0,1-11.13,11.13H167.73a11.13,11.13,0,0,1-11.13-11.13V222.66H120.89A143.6,143.6,0,0,1,0,156.38V289.45H380V156.38a143.6,143.6,0,0,1-120.89,66.28Z"/><path d="M346.6,66.8H290.19V55.66A55.72,55.72,0,0,0,234.53,0H145.47A55.72,55.72,0,0,0,89.81,55.66V66.8H33.4A33.37,33.37,0,0,0,1.17,91.87c6,60.74,57.45,108.52,119.72,108.52H156.6V189.26a11.13,11.13,0,0,1,11.13-11.14h44.54a11.13,11.13,0,0,1,11.13,11.14v11.13h35.71c62.27,0,113.77-47.78,119.71-108.52A33.35,33.35,0,0,0,346.6,66.8Zm-78.67,0H112.07V55.66a33.43,33.43,0,0,1,33.4-33.39h89.06a33.43,33.43,0,0,1,33.4,33.39Z"/><path d="M0,311.72v11.13a33.43,33.43,0,0,0,33.4,33.4H346.6a33.43,33.43,0,0,0,33.4-33.4V311.72Z"/></svg>