<svg xmlns="http://www.w3.org/2000/svg" viewBox="0 0 283.08 283.08"><title>1</title><path d="M79.25,108.75a9,9,0,0,0,.12,1.79A6.59,6.59,0,0,0,81,113.86a6.68,6.68,0,0,0,3.3,1.7,10.08,10.08,0,0,0,1.81.17,10.58,10.58,0,0,0,1.78-.11,21.48,21.48,0,0,0,6.61-2.11,42.77,42.77,0,0,0,11-8,52.26,52.26,0,0,0,4.44-5.18,39.48,39.48,0,0,0,3.57-5.84,21.75,21.75,0,0,0,2.11-6.61,10.58,10.58,0,0,0,.11-1.78,10.08,10.08,0,0,0-.17-1.81,6.76,6.76,0,0,0-1.7-3.3,6.59,6.59,0,0,0-3.32-1.61,9,9,0,0,0-1.79-.12,11.38,11.38,0,0,0-1.75.15,22.39,22.39,0,0,0-6.47,2.25,38.67,38.67,0,0,0-5.74,3.6,51.3,51.3,0,0,0-5.08,4.46,53.51,53.51,0,0,1,5.12-4.4,40.49,40.49,0,0,1,5.77-3.53,21.25,21.25,0,0,1,6.47-2,9.83,9.83,0,0,1,1.71-.11,9,9,0,0,1,1.71.16A5.32,5.32,0,0,1,115,84.35a9.6,9.6,0,0,1,.11,1.69,10.49,10.49,0,0,1-.15,1.68,21.86,21.86,0,0,1-2.21,6.33,38.73,38.73,0,0,1-3.55,5.67,52.72,52.72,0,0,1-9.44,9.44,39.6,39.6,0,0,1-5.67,3.55,21.84,21.84,0,0,1-6.33,2.2,8.61,8.61,0,0,1-1.68.15,8.78,8.78,0,0,1-1.69-.11,6,6,0,0,1-3-1.45,6.13,6.13,0,0,1-1.55-3,9,9,0,0,1-.16-1.71,9.76,9.76,0,0,1,.11-1.71,21.18,21.18,0,0,1,2.06-6.47,39.54,39.54,0,0,1,3.52-5.77,52.31,52.31,0,0,1,4.4-5.12,52.62,52.62,0,0,0-4.46,5.08,38.67,38.67,0,0,0-3.6,5.74A22.29,22.29,0,0,0,79.4,107,11.38,11.38,0,0,0,79.25,108.75Z"/><path d="M75.77,116.7a10.11,10.11,0,0,0,.82,2.29A8.6,8.6,0,0,0,78,121a8.73,8.73,0,0,0,2,1.48,10.27,10.27,0,0,0,2.29.87,14.62,14.62,0,0,0,4.74.28,27.91,27.91,0,0,0,8.85-2.54A54.53,54.53,0,0,0,121.09,95.9a27.91,27.91,0,0,0,2.54-8.85,14.61,14.61,0,0,0-.28-4.74,10.59,10.59,0,0,0-.87-2.29A9,9,0,0,0,121,78a8.6,8.6,0,0,0-2-1.44,10.11,10.11,0,0,0-2.29-.82,14.54,14.54,0,0,0-4.69-.18,28.37,28.37,0,0,0-8.71,2.68A52.26,52.26,0,0,0,88.8,88.8a52.24,52.24,0,0,1,14.57-10.4,27.8,27.8,0,0,1,8.69-2.49,14.06,14.06,0,0,1,4.57.27,9.72,9.72,0,0,1,2.16.82,8.4,8.4,0,0,1,1.86,1.38A8.52,8.52,0,0,1,122,80.25a9.94,9.94,0,0,1,.77,2.16,14.31,14.31,0,0,1,.17,4.52,28.23,28.23,0,0,1-2.64,8.55,51.63,51.63,0,0,1-10.44,14.37,52.19,52.19,0,0,1-14.37,10.44,27.94,27.94,0,0,1-8.55,2.63,14,14,0,0,1-4.52-.17,9.68,9.68,0,0,1-2.15-.77,8,8,0,0,1-1.88-1.34A8.66,8.66,0,0,1,77,118.79a10.23,10.23,0,0,1-.82-2.16,14.34,14.34,0,0,1-.27-4.57,27.55,27.55,0,0,1,2.5-8.69A52.21,52.21,0,0,1,88.8,88.8a52.26,52.26,0,0,0-10.53,14.5A28.28,28.28,0,0,0,75.59,112,14.55,14.55,0,0,0,75.77,116.7Z"/><path d="M72.19,122.85a13.23,13.23,0,0,0,1.08,2.82,11.8,11.8,0,0,0,1.81,2.47A12.28,12.28,0,0,0,77.53,130a14,14,0,0,0,2.82,1.13,18.69,18.69,0,0,0,5.89.49,33.74,33.74,0,0,0,11.08-3,65.53,65.53,0,0,0,31.34-31.34,34.12,34.12,0,0,0,3-11.08,18.38,18.38,0,0,0-.5-5.89A13.37,13.37,0,0,0,130,77.53a12.28,12.28,0,0,0-1.86-2.45,11.8,11.8,0,0,0-2.47-1.81,13.36,13.36,0,0,0-2.81-1.08,18.37,18.37,0,0,0-5.85-.4,34.41,34.41,0,0,0-10.93,3.11,62.67,62.67,0,0,0-18.2,13A62.89,62.89,0,0,1,106.15,75a33.54,33.54,0,0,1,10.91-2.92,17.84,17.84,0,0,1,5.72.48,13.24,13.24,0,0,1,2.69,1.07,11.72,11.72,0,0,1,2.32,1.76,11.85,11.85,0,0,1,1.72,2.34,12.6,12.6,0,0,1,1,2.7,17.75,17.75,0,0,1,.39,5.67,34,34,0,0,1-3.07,10.77A62.1,62.1,0,0,1,115,115a62.29,62.29,0,0,1-18,12.89,34,34,0,0,1-10.77,3.06,17.76,17.76,0,0,1-5.67-.38,13.1,13.1,0,0,1-2.69-1,10,10,0,0,1-4.1-4,12.59,12.59,0,0,1-1.08-2.7,17.76,17.76,0,0,1-.48-5.71A33.67,33.67,0,0,1,75,106.14,62.84,62.84,0,0,1,87.88,87.88a62.76,62.76,0,0,0-13,18.19A34.47,34.47,0,0,0,71.79,117,18.29,18.29,0,0,0,72.19,122.85Z"/><path d="M68.62,129A15.81,15.81,0,0,0,70,132.35a15.24,15.24,0,0,0,2.18,2.94,15,15,0,0,0,2.92,2.22,16,16,0,0,0,3.35,1.39,21.8,21.8,0,0,0,7,.7,39.85,39.85,0,0,0,13.3-3.37,73.66,73.66,0,0,0,22.1-15.4,73.66,73.66,0,0,0,15.4-22.1,39.91,39.91,0,0,0,3.37-13.3,21.89,21.89,0,0,0-.7-7,16.16,16.16,0,0,0-1.39-3.34,14.67,14.67,0,0,0-2.23-2.92A14.88,14.88,0,0,0,132.35,70,15.81,15.81,0,0,0,129,68.62a21.45,21.45,0,0,0-7-.61,40.27,40.27,0,0,0-13.17,3.52A73.29,73.29,0,0,0,87,87a73.19,73.19,0,0,1,22-15.3,39.45,39.45,0,0,1,13.14-3.34,21.54,21.54,0,0,1,6.86.69,15.41,15.41,0,0,1,3.23,1.34,14.35,14.35,0,0,1,2.78,2.13,14.18,14.18,0,0,1,2.09,2.8,16,16,0,0,1,1.29,3.23,20.94,20.94,0,0,1,.58,6.82,39.59,39.59,0,0,1-3.48,13,72.73,72.73,0,0,1-15.34,21.74,72.73,72.73,0,0,1-21.74,15.34,39.84,39.84,0,0,1-13,3.48,21,21,0,0,1-6.82-.59A15.12,15.12,0,0,1,75.3,137a14,14,0,0,1-2.81-2.09,14.12,14.12,0,0,1-2.13-2.79A15.11,15.11,0,0,1,69,128.92a21.25,21.25,0,0,1-.68-6.86,39.44,39.44,0,0,1,3.33-13.14A73.19,73.19,0,0,1,87,87a73.29,73.29,0,0,0-15.44,21.88A40,40,0,0,0,68,122,21.48,21.48,0,0,0,68.62,129Z"/><path d="M65,135.15a17.93,17.93,0,0,0,1.6,3.88,15.67,15.67,0,0,0,5.92,6,18.86,18.86,0,0,0,3.88,1.65,25.29,25.29,0,0,0,8.18.91,45.63,45.63,0,0,0,15.53-3.79,83.88,83.88,0,0,0,25.78-17.86,84,84,0,0,0,17.86-25.78,45.68,45.68,0,0,0,3.79-15.53,25.29,25.29,0,0,0-.91-8.18A18.63,18.63,0,0,0,145,72.56a15.67,15.67,0,0,0-6-5.92,17.93,17.93,0,0,0-3.88-1.6,24.69,24.69,0,0,0-8.13-.81,46.19,46.19,0,0,0-15.39,3.93,83.89,83.89,0,0,0-25.57,17.9A83.62,83.62,0,0,1,111.7,68.3a45.33,45.33,0,0,1,15.36-3.75,24.67,24.67,0,0,1,8,.89,18,18,0,0,1,3.76,1.6,16.81,16.81,0,0,1,3.26,2.5,17,17,0,0,1,2.45,3.28,18,18,0,0,1,1.55,3.75,24.69,24.69,0,0,1,.79,8A45.45,45.45,0,0,1,143,99.75a83.42,83.42,0,0,1-17.79,25.43A83.42,83.42,0,0,1,99.75,143a45.45,45.45,0,0,1-15.22,3.9,24.36,24.36,0,0,1-8-.8,17.29,17.29,0,0,1-3.76-1.54,16.64,16.64,0,0,1-3.28-2.46,17.15,17.15,0,0,1-2.5-3.25,18,18,0,0,1-1.59-3.76,24.4,24.4,0,0,1-.89-8A45.08,45.08,0,0,1,68.3,111.7,83.62,83.62,0,0,1,86.06,86.06a83.89,83.89,0,0,0-17.9,25.57A46.13,46.13,0,0,0,64.23,127,24.69,24.69,0,0,0,65,135.15Z"/><path d="M61.47,141.3a20.72,20.72,0,0,0,1.85,4.41,20.2,20.2,0,0,0,2.92,3.86,20,20,0,0,0,3.84,3,21.47,21.47,0,0,0,4.41,1.91,29,29,0,0,0,9.32,1.12,51.54,51.54,0,0,0,17.75-4.21A94.39,94.39,0,0,0,131,131a94.5,94.5,0,0,0,20.31-29.48,51.53,51.53,0,0,0,4.2-17.75,28.48,28.48,0,0,0-1.12-9.32,20.68,20.68,0,0,0-1.9-4.41,18.23,18.23,0,0,0-6.82-6.76,20.72,20.72,0,0,0-4.41-1.85,28.42,28.42,0,0,0-9.27-1,51.91,51.91,0,0,0-17.62,4.35A94.17,94.17,0,0,0,85.15,85.15a94.07,94.07,0,0,1,29.33-20.21,51,51,0,0,1,17.58-4.17,28.19,28.19,0,0,1,9.15,1.1,20.82,20.82,0,0,1,4.29,1.85,20.28,20.28,0,0,1,3.72,2.87,19.85,19.85,0,0,1,2.83,3.75,20.41,20.41,0,0,1,1.8,4.29,27.84,27.84,0,0,1,1,9.1,51.56,51.56,0,0,1-4.31,17.44,93.86,93.86,0,0,1-20.25,29.11,93.73,93.73,0,0,1-29.12,20.25,51.32,51.32,0,0,1-17.44,4.31,27.83,27.83,0,0,1-9.1-1A20.45,20.45,0,0,1,70.34,152a17.58,17.58,0,0,1-6.61-6.54,20.71,20.71,0,0,1-1.86-4.3,28.09,28.09,0,0,1-1.09-9.14,51,51,0,0,1,4.16-17.58A94.07,94.07,0,0,1,85.15,85.15,94.17,94.17,0,0,0,64.8,114.41,51.79,51.79,0,0,0,60.45,132,28.15,28.15,0,0,0,61.47,141.3Z"/><path d="M57.9,147.45a22,22,0,0,0,5.39,9.26A22.77,22.77,0,0,0,67.6,160a23.52,23.52,0,0,0,4.94,2.16A31.68,31.68,0,0,0,83,163.53a57.5,57.5,0,0,0,20-4.61,105.3,105.3,0,0,0,33.17-22.77A105.3,105.3,0,0,0,158.92,103a57.55,57.55,0,0,0,4.61-20,31.91,31.91,0,0,0-1.33-10.46A23.52,23.52,0,0,0,160,67.6a21.54,21.54,0,0,0-12.59-9.7A31.64,31.64,0,0,0,137,56.67a58,58,0,0,0-19.84,4.76,104.82,104.82,0,0,0-32.95,22.8,104.84,104.84,0,0,1,33-22.66A56.92,56.92,0,0,1,137.06,57a31.31,31.31,0,0,1,10.29,1.31,22.46,22.46,0,0,1,4.82,2.11,21.93,21.93,0,0,1,4.19,3.24,22.17,22.17,0,0,1,3.2,4.21,23.25,23.25,0,0,1,2.06,4.82,31,31,0,0,1,1.2,10.24,57.22,57.22,0,0,1-4.72,19.67,104.37,104.37,0,0,1-22.71,32.8,104.18,104.18,0,0,1-32.8,22.7,57.52,57.52,0,0,1-19.66,4.73,31.58,31.58,0,0,1-10.25-1.2,22.76,22.76,0,0,1-4.82-2.07,21.71,21.71,0,0,1-4.21-3.19,22.24,22.24,0,0,1-3.24-4.19,22.9,22.9,0,0,1-2.11-4.82A31.34,31.34,0,0,1,57,137.06a57.13,57.13,0,0,1,4.57-19.8,104.75,104.75,0,0,1,22.67-33,104.84,104.84,0,0,0-22.81,33A58,58,0,0,0,56.67,137,31.64,31.64,0,0,0,57.9,147.45Z"/><path d="M52.86,142a35.14,35.14,0,0,0,1.45,11.57,23.77,23.77,0,0,0,10.81,14A26.86,26.86,0,0,0,70.59,170a35.62,35.62,0,0,0,11.59,1.51,63.84,63.84,0,0,0,22.19-5c14-5.78,26.3-14.67,36.89-25.17s19.39-22.93,25.16-36.89a63.62,63.62,0,0,0,5.05-22.19A35.55,35.55,0,0,0,170,70.59a26.86,26.86,0,0,0-2.41-5.47,24.27,24.27,0,0,0-14-10.81A35.14,35.14,0,0,0,142,52.86,63.59,63.59,0,0,0,120,58c-13.89,5.84-26.13,14.78-36.63,25.3C93.88,72.87,106.17,64,120.06,58.26a63.3,63.3,0,0,1,22-5,34.72,34.72,0,0,1,11.42,1.49,24.23,24.23,0,0,1,10,6,24.05,24.05,0,0,1,5.89,10,34.79,34.79,0,0,1,1.43,11.39A63.07,63.07,0,0,1,165.7,104c-5.8,13.81-14.71,26-25.2,36.47S117.84,159.9,104,165.7a62.83,62.83,0,0,1-21.91,5.12,34.78,34.78,0,0,1-11.39-1.42,25.14,25.14,0,0,1-5.35-2.33,24.56,24.56,0,0,1-4.68-3.57,25,25,0,0,1-3.6-4.66,25.77,25.77,0,0,1-2.36-5.35,35,35,0,0,1-1.49-11.42,63.25,63.25,0,0,1,5-22C64,106.17,72.87,93.88,83.32,83.32,72.8,93.82,63.86,106.06,58,120A63.49,63.49,0,0,0,52.86,142Z"/><path d="M54.66,122.73A69.31,69.31,0,0,0,49.08,147a38.82,38.82,0,0,0,1.66,12.7,28.86,28.86,0,0,0,2.63,6,25.85,25.85,0,0,0,9.27,9.31,29.77,29.77,0,0,0,6,2.67,39,39,0,0,0,12.74,1.72,69.51,69.51,0,0,0,24.4-5.47,112.54,112.54,0,0,0,21.69-11.85c3.38-2.34,6.65-4.84,9.81-7.46s6.17-5.42,9.09-8.3,5.65-6,8.3-9.1,5.12-6.42,7.46-9.8A113.38,113.38,0,0,0,174,105.78a69.28,69.28,0,0,0,5.46-24.41,38.49,38.49,0,0,0-1.72-12.73,29.19,29.19,0,0,0-2.66-6,25.85,25.85,0,0,0-9.31-9.27,28.86,28.86,0,0,0-6-2.63A38.78,38.78,0,0,0,147,49.08a69.31,69.31,0,0,0-24.31,5.58,112.91,112.91,0,0,0-21.56,11.93q-5,3.54-9.74,7.5t-9,8.32q4.38-4.3,9.06-8.27t9.77-7.44a113,113,0,0,1,21.6-11.8,69.28,69.28,0,0,1,24.23-5.43,38.51,38.51,0,0,1,12.57,1.7,28.57,28.57,0,0,1,5.88,2.61,28.15,28.15,0,0,1,5.13,4,27.62,27.62,0,0,1,3.94,5.14,28.78,28.78,0,0,1,2.58,5.89,38.27,38.27,0,0,1,1.63,12.54,69,69,0,0,1-5.54,24.13c-6.33,15.21-16.12,28.65-27.65,40.16s-25,21.32-40.16,27.65a69,69,0,0,1-24.13,5.54,38.27,38.27,0,0,1-12.54-1.63,28.46,28.46,0,0,1-5.88-2.58,26.35,26.35,0,0,1-11.73-15,38.42,38.42,0,0,1-1.7-12.56,69.28,69.28,0,0,1,5.43-24.23,113,113,0,0,1,11.8-21.6q3.51-5,7.44-9.77c2.64-3.13,5.4-6.14,8.27-9.06-2.88,2.9-5.67,5.9-8.32,9s-5.14,6.38-7.5,9.73A113.85,113.85,0,0,0,54.66,122.73Z"/><path d="M51.3,125.51c-3.38,8.35-5.8,17.26-6,26.53a42.32,42.32,0,0,0,1.85,13.85,31.43,31.43,0,0,0,2.9,6.53,30.73,30.73,0,0,0,4.39,5.72,30.11,30.11,0,0,0,12.24,7.35,42.51,42.51,0,0,0,13.88,1.93c9.29-.15,18.24-2.54,26.63-5.88a123.16,123.16,0,0,0,23.67-12.88q5.52-3.84,10.69-8.13t9.92-9.06q4.71-4.77,9.05-9.91t8.13-10.7a123.08,123.08,0,0,0,12.88-23.66c3.34-8.39,5.73-17.34,5.88-26.63a42.51,42.51,0,0,0-1.93-13.88,30.11,30.11,0,0,0-7.35-12.24,30.73,30.73,0,0,0-5.72-4.39,31.43,31.43,0,0,0-6.53-2.9A42.29,42.29,0,0,0,152,45.31c-9.27.19-18.18,2.61-26.53,6a123,123,0,0,0-23.54,13q-5.5,3.85-10.63,8.16T81.5,81.5c3.18-3.13,6.47-6.15,9.88-9s7-5.56,10.67-8.11a122.15,122.15,0,0,1,23.57-12.83c8.35-3.33,17.25-5.7,26.45-5.84a41.89,41.89,0,0,1,13.71,1.89,31.3,31.3,0,0,1,6.42,2.88,27.63,27.63,0,0,1,9.9,9.94,30.86,30.86,0,0,1,2.84,6.42,41.72,41.72,0,0,1,1.83,13.68c-.19,9.18-2.59,18-6,26.35a122.19,122.19,0,0,1-12.92,23.46q-3.84,5.48-8.13,10.59t-9.05,9.81c-3.16,3.13-6.42,6.16-9.81,9s-6.95,5.58-10.6,8.14a122.35,122.35,0,0,1-23.45,12.92c-8.3,3.35-17.17,5.76-26.35,6a41.72,41.72,0,0,1-13.68-1.83,31.31,31.31,0,0,1-6.41-2.84,30.11,30.11,0,0,1-5.61-4.31,30.46,30.46,0,0,1-4.34-5.59,31,31,0,0,1-2.87-6.42,41.63,41.63,0,0,1-1.9-13.71c.15-9.2,2.51-18.1,5.84-26.45A122.52,122.52,0,0,1,64.37,102q3.82-5.51,8.11-10.66c2.87-3.41,5.89-6.7,9-9.88q-4.73,4.74-9.07,9.84T64.26,102A122.4,122.4,0,0,0,51.3,125.51Z"/><path d="M47.93,128.29c-3.64,9.05-6.22,18.72-6.4,28.75a45.82,45.82,0,0,0,2.06,15,34.78,34.78,0,0,0,3.15,7.06,34.34,34.34,0,0,0,4.76,6.19,33,33,0,0,0,13.24,8,45.7,45.7,0,0,0,15,2.13c10.06-.13,19.77-2.68,28.85-6.29a132.66,132.66,0,0,0,25.65-13.91q6-4.16,11.59-8.81t10.73-9.8q5.11-5.18,9.8-10.73t8.8-11.59a132.16,132.16,0,0,0,13.92-25.65c3.61-9.09,6.16-18.79,6.29-28.85a46,46,0,0,0-2.13-15,34.65,34.65,0,0,0-3.18-7.06,34.08,34.08,0,0,0-4.79-6.18,34.34,34.34,0,0,0-6.19-4.76A34.78,34.78,0,0,0,172,43.59a45.79,45.79,0,0,0-15-2.06c-10,.18-19.71,2.76-28.76,6.4a132.24,132.24,0,0,0-25.52,14q-6,4.17-11.52,8.83T80.59,80.59q5.16-5.1,10.7-9.78T102.85,62A132,132,0,0,1,128.4,48.17c9-3.59,18.7-6.12,28.68-6.25A45.29,45.29,0,0,1,171.92,44a33.87,33.87,0,0,1,7,3.13,33.28,33.28,0,0,1,6.06,4.71,32.65,32.65,0,0,1,4.68,6.07,34.24,34.24,0,0,1,3.1,6.95,45.18,45.18,0,0,1,2,14.82c-.17,10-2.74,19.57-6.36,28.58a131.89,131.89,0,0,1-13.95,25.43q-4.16,5.94-8.81,11.48t-9.79,10.64c-3.42,3.39-7,6.67-10.64,9.79s-7.52,6-11.48,8.81a131.85,131.85,0,0,1-25.43,13.94c-9,3.63-18.63,6.2-28.58,6.37a45.35,45.35,0,0,1-14.81-2,34.08,34.08,0,0,1-7-3.1,33.53,33.53,0,0,1-6.07-4.68,32.79,32.79,0,0,1-4.7-6.06,33.38,33.38,0,0,1-3.14-7,45.33,45.33,0,0,1-2.1-14.84c.13-10,2.66-19.63,6.26-28.68A131.4,131.4,0,0,1,62,102.85q4.14-6,8.78-11.56c3.11-3.69,6.38-7.26,9.77-10.7q-5.11,5.13-9.83,10.66t-8.83,11.52A132.24,132.24,0,0,0,47.93,128.29Z"/><path d="M44.57,131.07c-3.9,9.75-6.65,20.17-6.81,31A48.92,48.92,0,0,0,40,178.18a37.47,37.47,0,0,0,3.41,7.6,36.64,36.64,0,0,0,5.13,6.65,36.39,36.39,0,0,0,6.64,5.16A37.26,37.26,0,0,0,62.79,201,49.43,49.43,0,0,0,79,203.36c10.83-.12,21.29-2.83,31.08-6.7a142.49,142.49,0,0,0,27.63-14.95q6.45-4.46,12.48-9.47t11.55-10.55c3.66-3.71,7.19-7.57,10.55-11.56s6.5-8.18,9.47-12.48A141.91,141.91,0,0,0,196.66,110c3.87-9.78,6.58-20.24,6.7-31.07A49.39,49.39,0,0,0,201,62.79a37,37,0,0,0-3.44-7.59,36.39,36.39,0,0,0-5.16-6.64,36.64,36.64,0,0,0-6.65-5.13,37.22,37.22,0,0,0-7.6-3.41,48.92,48.92,0,0,0-16.13-2.26c-10.81.16-21.23,2.91-31,6.81a142,142,0,0,0-27.5,15q-6.42,4.49-12.41,9.5c-2.6,2.21-5.11,4.51-7.59,6.85q3.74-3.49,7.63-6.8,6-5,12.45-9.44a141.77,141.77,0,0,1,27.53-14.9c9.75-3.85,20.16-6.55,30.9-6.67a48.82,48.82,0,0,1,16,2.31,35.19,35.19,0,0,1,14,8.46,35.75,35.75,0,0,1,5,6.54,36.69,36.69,0,0,1,3.36,7.49,48.84,48.84,0,0,1,2.24,16c-.16,10.71-2.9,21.09-6.79,30.79a140.94,140.94,0,0,1-15,27.42c-3,4.26-6.14,8.39-9.47,12.37s-6.88,7.77-10.54,11.45-7.5,7.19-11.46,10.55S141.37,178,137.11,181a140.94,140.94,0,0,1-27.42,15c-9.7,3.89-20.07,6.62-30.79,6.78a48.31,48.31,0,0,1-16-2.24,35,35,0,0,1-14-8.39,35.19,35.19,0,0,1-8.46-14,48.81,48.81,0,0,1-2.3-16c.11-10.74,2.81-21.15,6.66-30.9a141.48,141.48,0,0,1,14.9-27.53q4.45-6.44,9.44-12.45c2.2-2.61,4.48-5.15,6.81-7.64-2.35,2.48-4.65,5-6.86,7.6q-5,6-9.5,12.41A142,142,0,0,0,44.57,131.07Z"/><path d="M79.68,79.67C81,78.41,82.26,77.18,83.57,76,82.26,77.18,81,78.41,79.68,79.67Z"/><path d="M76,83.56q1.83-2,3.72-3.89C78.41,81,77.19,82.25,76,83.56Z"/><path d="M41.21,133.85c-4.16,10.45-7.09,21.63-7.23,33.2a52.71,52.71,0,0,0,2.47,17.28,39.71,39.71,0,0,0,3.66,8.12,38.68,38.68,0,0,0,5.5,7.12,38.48,38.48,0,0,0,15.23,9.23,52.85,52.85,0,0,0,17.3,2.53c11.6-.1,22.81-3,33.3-7.11a151.71,151.71,0,0,0,29.61-16q6.91-4.78,13.37-10.14t12.38-11.3c3.92-4,7.7-8.1,11.3-12.38s7-8.76,10.13-13.37a151.5,151.5,0,0,0,16-29.61c4.13-10.49,7-21.7,7.11-33.3a52.85,52.85,0,0,0-2.53-17.3,38.48,38.48,0,0,0-9.23-15.23,38.68,38.68,0,0,0-7.12-5.5,39.71,39.71,0,0,0-8.12-3.66A52.71,52.71,0,0,0,167.05,34c-11.57.14-22.74,3.07-33.19,7.23a150.79,150.79,0,0,0-29.49,16.06q-6.87,4.8-13.3,10.17T78.76,78.76c4-3.91,8.09-7.68,12.35-11.27s8.74-6.94,13.34-10.11A150.54,150.54,0,0,1,134,41.45c10.44-4.11,21.6-7,33.11-7.08a52.2,52.2,0,0,1,17.13,2.51,39.37,39.37,0,0,1,8,3.64,38.7,38.7,0,0,1,7,5.44,37.92,37.92,0,0,1,9,15,52.56,52.56,0,0,1,2.44,17.1c-.14,11.49-3.05,22.61-7.2,33a150.36,150.36,0,0,1-16,29.39q-4.78,6.85-10.14,13.27C173.74,158,170,162.1,166,166s-8,7.7-12.27,11.29-8.7,7-13.27,10.15a150.89,150.89,0,0,1-29.39,16c-10.41,4.15-21.53,7-33,7.19A52,52,0,0,1,61,208.24a37.62,37.62,0,0,1-15-9,38.38,38.38,0,0,1-5.45-7,39,39,0,0,1-3.64-8,52.51,52.51,0,0,1-2.51-17.13c.1-11.51,3-22.67,7.08-33.12a151.27,151.27,0,0,1,15.93-29.51q4.77-6.9,10.11-13.34c3.59-4.26,7.36-8.38,11.27-12.35q-5.9,5.94-11.32,12.31t-10.17,13.3A151,151,0,0,0,41.21,133.85Z"/><path d="M37.85,136.64c-4.42,11.15-7.52,23.07-7.65,35.42a56.35,56.35,0,0,0,2.68,18.41,41.17,41.17,0,0,0,9.78,16.25,42.16,42.16,0,0,0,7.57,5.89,43.05,43.05,0,0,0,8.66,4,56.86,56.86,0,0,0,18.44,2.74c12.38-.09,24.33-3.15,35.52-7.54a160.53,160.53,0,0,0,31.6-17q7.37-5.08,14.26-10.8t13.2-12.05q6.27-6.37,12.05-13.21t10.8-14.26a160.17,160.17,0,0,0,17-31.59c4.39-11.19,7.45-23.15,7.54-35.52a56.6,56.6,0,0,0-2.75-18.44,41,41,0,0,0-9.84-16.23,41.17,41.17,0,0,0-16.25-9.78,56.35,56.35,0,0,0-18.41-2.68c-12.35.13-24.27,3.23-35.42,7.65a160.59,160.59,0,0,0-31.47,17.09Q97.84,60.06,91,65.78T77.85,77.85q6.34-6.27,13.17-12t14.23-10.78a160.34,160.34,0,0,1,31.5-17c11.15-4.38,23.05-7.42,35.34-7.5a56,56,0,0,1,18.27,2.71,41.94,41.94,0,0,1,8.54,3.91,38,38,0,0,1,13.25,13.28A42.07,42.07,0,0,1,216,59a55.5,55.5,0,0,1,2.65,18.24c-.13,12.26-3.2,24.13-7.61,35.24A160,160,0,0,1,194,143.9q-5.08,7.32-10.81,14.15c-3.83,4.53-7.86,8.89-12,13.1s-8.57,8.2-13.1,12-9.27,7.42-14.15,10.81a160,160,0,0,1-31.38,17.05c-11.11,4.4-23,7.48-35.24,7.61A56,56,0,0,1,59,216a40.41,40.41,0,0,1-16-9.65,40.48,40.48,0,0,1-9.71-16,56,56,0,0,1-2.72-18.27c.09-12.29,3.13-24.19,7.5-35.34a160.86,160.86,0,0,1,17-31.5Q60.14,97.9,65.83,91t12-13.17Q71.57,84.18,65.78,91T55,105.17A160.11,160.11,0,0,0,37.85,136.64Z"/><path d="M34.49,139.42c-4.69,11.85-8,24.52-8.06,37.64a59.89,59.89,0,0,0,2.87,19.56,43.71,43.71,0,0,0,10.42,17.24,44.12,44.12,0,0,0,8,6.26,44.83,44.83,0,0,0,9.19,4.21,59.8,59.8,0,0,0,19.58,2.95c13.15-.07,25.85-3.3,37.75-7.95a170,170,0,0,0,33.57-18q7.83-5.4,15.15-11.48T177,177c4.44-4.51,8.72-9.18,12.79-14s7.88-9.93,11.47-15.15a169.81,169.81,0,0,0,18.05-33.58c4.65-11.89,7.88-24.59,7.95-37.74a59.8,59.8,0,0,0-2.95-19.58,44.83,44.83,0,0,0-4.21-9.19,44.12,44.12,0,0,0-6.26-8A43.71,43.71,0,0,0,196.62,29.3a59.82,59.82,0,0,0-19.56-2.87c-13.11.11-25.79,3.37-37.64,8.06A169.39,169.39,0,0,0,106,52.62Q98.17,58,90.89,64.12c-4.82,4.08-9.47,8.37-14,12.82q6.75-6.66,14-12.77t15.12-11.45a169.85,169.85,0,0,1,33.48-18c11.85-4.64,24.51-7.85,37.56-7.91a59.39,59.39,0,0,1,19.41,2.91,43.22,43.22,0,0,1,17,10.34,43,43,0,0,1,10.27,17,59.24,59.24,0,0,1,2.85,19.39c-.11,13-3.36,25.65-8,37.46a169.72,169.72,0,0,1-18.08,33.35q-5.4,7.78-11.48,15.05c-4.07,4.81-8.35,9.45-12.79,13.92s-9.11,8.71-13.92,12.79-9.86,7.87-15.05,11.47a169.19,169.19,0,0,1-33.35,18.08c-11.81,4.67-24.44,7.92-37.46,8a59.24,59.24,0,0,1-19.39-2.85,43.21,43.21,0,0,1-17-10.28,42.91,42.91,0,0,1-10.33-17,59.13,59.13,0,0,1-2.92-19.41c.06-13.05,3.27-25.71,7.91-37.56a169.37,169.37,0,0,1,18-33.48q5.39-7.81,11.44-15.12t12.77-14c-4.45,4.48-8.74,9.13-12.82,14s-7.89,9.88-11.5,15.08A169.62,169.62,0,0,0,34.49,139.42Z"/><path d="M31.13,142.2c-4.95,12.56-8.38,26-8.48,39.87a63.54,63.54,0,0,0,3.08,20.69,47.86,47.86,0,0,0,4.44,9.72l1.44,2.28c.49.75,1.08,1.44,1.62,2.16l.82,1.08c.28.35.6.67.9,1l1.82,2,2,1.83c.34.3.66.63,1,.91l1.07.82c.72.54,1.41,1.12,2.16,1.62l2.27,1.45A48.23,48.23,0,0,0,55,232.1a63.54,63.54,0,0,0,20.73,3.15c13.91-.05,27.37-3.45,40-8.36a179.61,179.61,0,0,0,35.56-19.08q8.3-5.72,16-12.14t14.84-13.55q7.06-7.16,13.55-14.84t12.14-16.05a179.53,179.53,0,0,0,19.08-35.55c4.91-12.6,8.31-26.05,8.36-40A63.52,63.52,0,0,0,232.1,55a48.23,48.23,0,0,0-4.47-9.72L226.18,43c-.5-.75-1.08-1.44-1.62-2.16l-.82-1.07c-.28-.35-.61-.67-.91-1l-1.83-2L219,35c-.34-.3-.66-.63-1-.9l-1.08-.82c-.72-.54-1.41-1.13-2.16-1.62l-2.28-1.44a47.86,47.86,0,0,0-9.72-4.44,63.54,63.54,0,0,0-20.69-3.08c-13.89.1-27.31,3.53-39.87,8.48a178.91,178.91,0,0,0-35.43,19.16Q98.52,56,90.8,62.46T76,76Q83.17,69,90.84,62.51t16-12.12a179.13,179.13,0,0,1,35.46-19c12.55-4.9,26-8.28,39.78-8.33a62.92,62.92,0,0,1,20.56,3.12,47.69,47.69,0,0,1,9.61,4.42L214.5,32c.74.49,1.42,1.07,2.13,1.6l1.06.81c.35.28.66.6,1,.9l2,1.8,1.8,2c.3.34.61.65.89,1l.81,1.06c.53.71,1.1,1.39,1.59,2.14l1.43,2.24a47.54,47.54,0,0,1,4.38,9.61,62.7,62.7,0,0,1,3,20.53c-.09,13.8-3.51,27.17-8.44,39.68a178.28,178.28,0,0,1-19.11,35.34q-5.72,8.24-12.14,15.93c-4.31,5.1-8.84,10-13.54,14.75s-9.65,9.22-14.75,13.54-10.44,8.33-15.93,12.14a179.31,179.31,0,0,1-35.34,19.11c-12.51,4.93-25.88,8.35-39.68,8.44a63,63,0,0,1-20.53-3,48.09,48.09,0,0,1-9.61-4.38l-2.24-1.43c-.74-.49-1.42-1.07-2.14-1.59l-1.06-.81c-.35-.28-.66-.6-1-.89l-2-1.8-1.8-2c-.3-.33-.62-.64-.89-1l-.82-1.06c-.53-.71-1.11-1.39-1.6-2.13l-1.43-2.25a47.36,47.36,0,0,1-4.42-9.6A63.18,63.18,0,0,1,23,182.09c.05-13.82,3.43-27.23,8.33-39.78a178.65,178.65,0,0,1,19-35.46q5.7-8.28,12.11-16T76,76Q69,83.14,62.46,90.8t-12.17,16A178.63,178.63,0,0,0,31.13,142.2Z"/><path d="M27.76,145c-5.2,13.26-8.81,27.43-8.88,42.09a66.75,66.75,0,0,0,3.28,21.84,50.68,50.68,0,0,0,4.69,10.25l1.53,2.4c.52.79,1.14,1.52,1.7,2.28L31,225c.29.38.63.71.95,1.07l1.92,2.11,2.1,1.93c.36.31.7.65,1.07.95l1.13.87c.76.57,1.49,1.19,2.28,1.71l2.39,1.53A50.3,50.3,0,0,0,53,239.87a67,67,0,0,0,21.87,3.35c14.68,0,28.89-3.6,42.18-8.77a189.65,189.65,0,0,0,37.54-20.11q8.76-6,16.94-12.81t15.66-14.3q7.46-7.54,14.3-15.67t12.81-16.93a189.65,189.65,0,0,0,20.11-37.54c5.17-13.29,8.74-27.5,8.77-42.18A67.23,67.23,0,0,0,239.87,53a50.3,50.3,0,0,0-4.73-10.25l-1.53-2.39c-.52-.79-1.14-1.52-1.71-2.28L231,37c-.3-.37-.64-.71-.95-1.07l-1.93-2.1L226,31.9c-.36-.32-.69-.66-1.07-.95l-1.13-.87c-.76-.56-1.49-1.18-2.28-1.7l-2.4-1.53a50.68,50.68,0,0,0-10.25-4.69,66.75,66.75,0,0,0-21.84-3.28c-14.66.07-28.83,3.68-42.09,8.88A188.91,188.91,0,0,0,107.58,48Q98.85,54,90.71,60.8T75.11,75.11c5-5,10.24-9.72,15.64-14.26s11.08-8.78,16.9-12.78A188.45,188.45,0,0,1,145.09,28c13.26-5.16,27.41-8.71,42-8.75a66.55,66.55,0,0,1,21.69,3.33,50,50,0,0,1,10.14,4.67l2.37,1.52c.78.52,1.5,1.13,2.25,1.69l1.12.86c.36.29.7.63,1.05.94l2.07,1.9,1.9,2.09c.32.35.65.68.94,1.05l.86,1.12c.56.75,1.17,1.47,1.68,2.25l1.51,2.37a50.14,50.14,0,0,1,4.64,10.14,66.12,66.12,0,0,1,3.25,21.67c-.07,14.57-3.66,28.69-8.85,41.91a188.23,188.23,0,0,1-20.14,37.31q-6,8.7-12.81,16.83c-4.55,5.38-9.33,10.57-14.29,15.57s-10.19,9.73-15.57,14.28-11,8.8-16.83,12.81a187.76,187.76,0,0,1-37.31,20.15c-13.22,5.19-27.34,8.78-41.91,8.85a66.43,66.43,0,0,1-21.67-3.25,50.4,50.4,0,0,1-10.14-4.64l-2.37-1.51c-.78-.52-1.5-1.13-2.25-1.68l-1.12-.86c-.37-.29-.7-.63-1.05-.94l-2.08-1.9-1.91-2.08c-.31-.35-.65-.68-.94-1l-.86-1.12c-.56-.75-1.17-1.47-1.69-2.25l-1.52-2.37a50,50,0,0,1-4.67-10.14,66.28,66.28,0,0,1-3.32-21.69c0-14.6,3.58-28.75,8.74-42a188.18,188.18,0,0,1,20.06-37.44q6-8.73,12.78-16.9c4.54-5.4,9.31-10.61,14.26-15.64q-7.45,7.52-14.31,15.6T48,107.57A189,189,0,0,0,27.76,145Z"/><path d="M24.4,147.76c-5.46,14-9.24,28.89-9.3,44.31a70.18,70.18,0,0,0,3.49,23,52.83,52.83,0,0,0,4.95,10.79l1.6,2.52c.55.83,1.2,1.6,1.8,2.4l.91,1.19c.31.39.67.75,1,1.12l2,2.22,2.21,2c.37.33.72.69,1.11,1l1.19.92c.8.6,1.57,1.25,2.4,1.8l2.52,1.62a54.22,54.22,0,0,0,10.78,5,70.42,70.42,0,0,0,23,3.55c15.45,0,30.41-3.76,44.41-9.19A198.06,198.06,0,0,0,158,220.86q9.22-6.33,17.83-13.47t16.49-15q7.84-8,15-16.49T220.86,158A198.06,198.06,0,0,0,242,118.51c5.43-14,9.18-29,9.19-44.41a70.42,70.42,0,0,0-3.55-23,54.22,54.22,0,0,0-5-10.78L241,37.79c-.55-.83-1.2-1.6-1.8-2.4l-.92-1.19c-.31-.39-.67-.74-1-1.11l-2-2.21-2.22-2c-.37-.33-.73-.69-1.12-1l-1.19-.91c-.8-.6-1.57-1.25-2.4-1.8l-2.52-1.6a53,53,0,0,0-10.78-4.95,70.22,70.22,0,0,0-23-3.49c-15.43.06-30.35,3.84-44.31,9.3a197.72,197.72,0,0,0-39.39,21.23Q99.19,52,90.62,59.13T74.2,74.2q7.93-7.83,16.46-15t17.79-13.44a197.74,197.74,0,0,1,39.42-21.1c14-5.41,28.87-9.14,44.23-9.15A69.85,69.85,0,0,1,214.94,19,52.33,52.33,0,0,1,225.61,24l2.49,1.59c.82.55,1.58,1.19,2.37,1.78l1.18.91c.38.31.73.66,1.1,1l2.19,2,2,2.19c.33.37.68.72,1,1.11l.9,1.17c.59.8,1.23,1.55,1.77,2.38l1.59,2.49a52.75,52.75,0,0,1,4.9,10.67,70.13,70.13,0,0,1,3.46,22.81c-.06,15.34-3.82,30.21-9.27,44.13a197.64,197.64,0,0,1-21.18,39.3q-6.33,9.17-13.48,17.72c-4.78,5.66-9.81,11.12-15,16.38s-10.73,10.25-16.39,15-11.61,9.25-17.72,13.48a198.15,198.15,0,0,1-39.3,21.18c-13.92,5.44-28.79,9.2-44.13,9.26a69.58,69.58,0,0,1-22.8-3.46,52.79,52.79,0,0,1-10.68-4.89l-2.49-1.59c-.82-.55-1.58-1.19-2.37-1.77l-1.18-.91c-.39-.3-.74-.66-1.11-1l-2.19-2-2-2.18c-.33-.37-.68-.72-1-1.11l-.9-1.17c-.59-.79-1.24-1.55-1.78-2.37L24,225.61A52.33,52.33,0,0,1,19,214.94a69.85,69.85,0,0,1-3.53-22.84c0-15.36,3.74-30.27,9.16-44.23a197.7,197.7,0,0,1,21.09-39.42q6.32-9.2,13.45-17.79t15-16.46C69,79.47,63.93,84.94,59.14,90.62s-9.27,11.63-13.51,17.75A198.27,198.27,0,0,0,24.4,147.76Z"/><path d="M21,150.55a151,151,0,0,0-7,22.68,111.09,111.09,0,0,0-2.73,23.85A73.91,73.91,0,0,0,15,221.2a55.86,55.86,0,0,0,5.2,11.31l1.69,2.65c.58.87,1.26,1.68,1.88,2.52l1,1.25c.33.41.7.78,1.05,1.18l2.13,2.32,2.32,2.13c.39.35.76.73,1.17,1.06l1.25,1c.84.63,1.65,1.31,2.52,1.89l2.64,1.7a56,56,0,0,0,11.31,5.23,73.9,73.9,0,0,0,24.15,3.76,111.42,111.42,0,0,0,23.89-2.67,151.6,151.6,0,0,0,22.74-6.93,207.67,207.67,0,0,0,41.5-22.17q9.68-6.66,18.72-14.15t17.31-15.79q8.24-8.34,15.79-17.32t14.15-18.71a207.94,207.94,0,0,0,22.17-41.5,151.6,151.6,0,0,0,6.93-22.74,111.42,111.42,0,0,0,2.67-23.89,73.9,73.9,0,0,0-3.76-24.15,56,56,0,0,0-5.23-11.31l-1.7-2.64c-.58-.88-1.26-1.68-1.89-2.52l-1-1.25c-.33-.41-.71-.78-1.05-1.17l-2.14-2.32-2.32-2.13c-.4-.35-.77-.72-1.18-1.05l-1.25-1c-.84-.62-1.65-1.3-2.52-1.88l-2.65-1.69A55.86,55.86,0,0,0,221.2,15a73.91,73.91,0,0,0-24.12-3.69,111,111,0,0,0-23.84,2.73,150.8,150.8,0,0,0-22.69,7A207.25,207.25,0,0,0,109.18,43.3Q99.54,50,90.53,57.47T73.29,73.29q8.33-8.22,17.28-15.77t18.69-14.11a207.51,207.51,0,0,1,41.4-22.13,151.83,151.83,0,0,1,22.67-6.91,111.67,111.67,0,0,1,23.78-2.66,73.22,73.22,0,0,1,24,3.74,54.65,54.65,0,0,1,11.2,5.18l2.62,1.68c.86.57,1.66,1.25,2.49,1.87l1.23.95c.41.33.78.7,1.16,1l2.3,2.11,2.1,2.3c.35.39.72.76,1,1.16l.95,1.24c.62.83,1.29,1.63,1.86,2.49l1.67,2.62a54.86,54.86,0,0,1,5.15,11.21,73.25,73.25,0,0,1,3.67,24A111.33,111.33,0,0,1,255.8,97a151.75,151.75,0,0,1-7,22.62,207.6,207.6,0,0,1-22.21,41.27q-6.66,9.63-14.15,18.61t-15.79,17.21q-8.3,8.22-17.21,15.79t-18.61,14.14a206.58,206.58,0,0,1-41.27,22.21,150.58,150.58,0,0,1-22.62,7,110.69,110.69,0,0,1-23.73,2.72,73,73,0,0,1-24-3.66,55.4,55.4,0,0,1-11.21-5.15L35.47,248c-.86-.57-1.66-1.25-2.49-1.87l-1.23-.94c-.41-.33-.78-.7-1.17-1l-2.3-2.1-2.11-2.3c-.34-.39-.71-.75-1-1.16l-.95-1.23c-.62-.83-1.29-1.63-1.87-2.49l-1.68-2.62a55.19,55.19,0,0,1-5.18-11.2,73.49,73.49,0,0,1-3.73-24,111.17,111.17,0,0,1,2.66-23.78,150.87,150.87,0,0,1,6.9-22.66,207.86,207.86,0,0,1,22.13-41.41Q50,99.59,57.53,90.57T73.29,73.29Q65,81.58,57.47,90.53T43.3,109.18A207.25,207.25,0,0,0,21,150.55Z"/><path d="M28.12,131a200.61,200.61,0,0,0-10.44,22.38,157.44,157.44,0,0,0-7.29,23.77,117,117,0,0,0-2.84,25,77.34,77.34,0,0,0,3.9,25.26,58,58,0,0,0,5.46,11.85L18.68,242c.6.91,1.32,1.76,2,2.64l1,1.31c.35.43.74.82,1.1,1.23L25,249.58l2.43,2.23c.41.37.8.76,1.23,1.1l1.31,1c.88.66,1.72,1.37,2.63,2l2.77,1.78a58.84,58.84,0,0,0,11.84,5.49,77.64,77.64,0,0,0,25.29,4,117.5,117.5,0,0,0,25-2.78,158.71,158.71,0,0,0,23.83-7.24,202.08,202.08,0,0,0,22.44-10.4,223.76,223.76,0,0,0,21-12.81q10.16-7,19.61-14.81t18.14-16.54q8.63-8.75,16.54-18.14t14.81-19.61a222.64,222.64,0,0,0,12.81-21,200.41,200.41,0,0,0,10.4-22.44,158.23,158.23,0,0,0,7.24-23.82,116.85,116.85,0,0,0,2.77-25,77.32,77.32,0,0,0-4-25.29,58.84,58.84,0,0,0-5.49-11.84l-1.78-2.77c-.61-.91-1.32-1.75-2-2.63l-1-1.31c-.34-.43-.73-.82-1.1-1.23L249.58,25l-2.44-2.23c-.41-.36-.8-.75-1.23-1.1l-1.31-1c-.88-.65-1.72-1.37-2.64-2l-2.77-1.77a58.18,58.18,0,0,0-11.84-5.46,77.44,77.44,0,0,0-25.27-3.9,117.08,117.08,0,0,0-25,2.84,157.79,157.79,0,0,0-23.77,7.29A201.45,201.45,0,0,0,131,28.12,225.32,225.32,0,0,0,110,41q-10.11,7-19.54,14.84T72.38,72.38q8.72-8.61,18.1-16.52t19.58-14.78a216.8,216.8,0,0,1,43.38-23.16,158.82,158.82,0,0,1,23.75-7.22,116.54,116.54,0,0,1,24.92-2.76,77.22,77.22,0,0,1,25.12,3.93A58.09,58.09,0,0,1,239,17.32l2.74,1.76c.9.6,1.74,1.31,2.61,2l1.29,1c.43.34.81.73,1.22,1.09l2.4,2.21,2.21,2.42c.36.4.74.79,1.09,1.21l1,1.3c.65.87,1.35,1.7,2,2.61l1.75,2.74a57.72,57.72,0,0,1,5.41,11.74,76.71,76.71,0,0,1,3.87,25.09,116.13,116.13,0,0,1-2.83,24.87,156.87,156.87,0,0,1-7.27,23.7,216.18,216.18,0,0,1-23.24,43.26q-7,10.08-14.81,19.5t-16.54,18q-8.69,8.61-18,16.54t-19.5,14.81A216.69,216.69,0,0,1,121,256.39a158,158,0,0,1-23.7,7.27,116.77,116.77,0,0,1-24.87,2.83,77,77,0,0,1-25.09-3.87,58.26,58.26,0,0,1-11.74-5.41l-2.74-1.75c-.9-.6-1.74-1.31-2.61-2l-1.3-1c-.42-.34-.81-.72-1.21-1.09l-2.41-2.2-2.21-2.41c-.37-.4-.75-.79-1.1-1.21l-1-1.29c-.65-.87-1.36-1.71-2-2.61L17.32,239a57.51,57.51,0,0,1-5.44-11.73,77,77,0,0,1-3.94-25.12,116.54,116.54,0,0,1,2.76-24.92,158.82,158.82,0,0,1,7.22-23.75,216.8,216.8,0,0,1,23.16-43.38Q48,99.94,55.86,90.48t16.52-18.1q-8.64,8.7-16.57,18.06T41,110A225.32,225.32,0,0,0,28.12,131Z"/><path d="M25.22,132.71a210.79,210.79,0,0,0-10.9,23.4A165.74,165.74,0,0,0,6.71,181a121.72,121.72,0,0,0-2.93,26.12c0,1.1,0,2.21,0,3.32l.2,3.32.1,1.67c0,.55.13,1.11.19,1.66l.41,3.32c.14,1.11.4,2.21.59,3.31s.36,2.21.69,3.3c.57,2.18,1.09,4.37,1.88,6.5.4,1.06.68,2.16,1.16,3.2l1.35,3.13a12.74,12.74,0,0,0,.73,1.54l.8,1.52c.55,1,1,2,1.68,3l1.85,2.89c.64,1,1.38,1.84,2.07,2.76l1,1.37c.36.44.76.85,1.15,1.28L22,256.72l2.55,2.33c.42.39.83.79,1.28,1.16l1.36,1.05c.92.69,1.8,1.43,2.76,2.07l2.89,1.86a31.32,31.32,0,0,0,3,1.68l1.51.81a12.8,12.8,0,0,0,1.54.74l3.14,1.36c1,.48,2.13.76,3.2,1.16a64.38,64.38,0,0,0,6.5,1.9c1.08.33,2.2.47,3.3.7s2.2.46,3.31.6l3.33.41c.55.07,1.11.15,1.66.2l1.67.11,3.33.21c1.11.05,2.22,0,3.33,0a122.84,122.84,0,0,0,26.16-2.88,166.15,166.15,0,0,0,24.91-7.55,209.75,209.75,0,0,0,23.46-10.86,234,234,0,0,0,22-13.38q10.6-7.27,20.5-15.48t19-17.3q9-9.12,17.29-18.95t15.48-20.5a235.3,235.3,0,0,0,13.38-22,211.42,211.42,0,0,0,10.86-23.46,166.51,166.51,0,0,0,7.55-24.91,122.93,122.93,0,0,0,2.88-26.17c0-1.1,0-2.21,0-3.32L274.86,65l-.11-1.67c-.05-.55-.13-1.11-.2-1.66l-.41-3.33c-.14-1.11-.4-2.21-.6-3.31s-.37-2.22-.7-3.3c-.58-2.18-1.1-4.38-1.9-6.51-.4-1.06-.68-2.16-1.17-3.19l-1.35-3.14a12.8,12.8,0,0,0-.74-1.54l-.81-1.51a30.14,30.14,0,0,0-1.68-3L263.33,30c-.64-1-1.38-1.84-2.07-2.76l-1.05-1.36c-.37-.45-.77-.86-1.16-1.28L256.72,22l-2.55-2.32c-.43-.39-.84-.79-1.28-1.15l-1.37-1c-.92-.69-1.8-1.43-2.76-2.07l-2.89-1.85c-1-.65-2-1.13-3-1.68l-1.52-.8a12.74,12.74,0,0,0-1.54-.73L236.69,9c-1-.48-2.14-.76-3.2-1.16-2.13-.79-4.32-1.31-6.5-1.88-1.08-.33-2.2-.46-3.3-.69s-2.2-.45-3.31-.59l-3.32-.41c-.55-.06-1.11-.14-1.66-.19L213.74,4l-3.33-.2c-1.11-.05-2.22,0-3.32,0A121.72,121.72,0,0,0,181,6.71a165.74,165.74,0,0,0-24.86,7.61,210.79,210.79,0,0,0-23.4,10.9,234.57,234.57,0,0,0-21.93,13.42q-10.57,7.29-20.43,15.51T71.47,71.46q9.11-9,18.92-17.26t20.47-15.45a233,233,0,0,1,22-13.36,210.47,210.47,0,0,1,23.41-10.83A165.23,165.23,0,0,1,181.06,7a121.88,121.88,0,0,1,26.05-2.87c1.11,0,2.21,0,3.31,0l3.31.21,1.66.11c.55.05,1.1.13,1.65.19l3.31.42c1.1.14,2.19.4,3.29.59s2.2.37,3.28.69a66.91,66.91,0,0,1,6.45,1.89c1.06.39,2.15.67,3.17,1.16l3.11,1.34a12.67,12.67,0,0,1,1.53.74l1.5.79c1,.55,2,1,3,1.67l2.86,1.84c.95.63,1.82,1.37,2.73,2.05l1.35,1c.44.36.85.77,1.27,1.15l2.52,2.31,2.3,2.52c.38.42.78.83,1.14,1.27l1,1.35c.68.92,1.41,1.79,2,2.73l1.83,2.87c.65.94,1.12,2,1.67,3l.79,1.5a14.3,14.3,0,0,1,.73,1.53l1.33,3.11c.48,1,.76,2.11,1.15,3.17a66.79,66.79,0,0,1,1.87,6.45c.32,1.07.46,2.18.69,3.27s.44,2.19.58,3.29l.41,3.3c.06.55.14,1.1.19,1.65l.1,1.66.2,3.31c.05,1.1,0,2.2,0,3.3a120.92,120.92,0,0,1-2.93,26A164.66,164.66,0,0,1,264,122.42a209,209,0,0,1-10.87,23.35,234.58,234.58,0,0,1-13.4,21.89q-7.29,10.54-15.48,20.39t-17.29,18.86q-9.09,9-18.86,17.28t-20.39,15.48a232.47,232.47,0,0,1-21.89,13.4A210.88,210.88,0,0,1,122.42,264a164.66,164.66,0,0,1-24.78,7.58,122.2,122.2,0,0,1-26,2.93c-1.1,0-2.2,0-3.3,0l-3.31-.2-1.65-.1c-.56-.05-1.11-.13-1.66-.2l-3.3-.4c-1.1-.14-2.19-.4-3.29-.59s-2.19-.36-3.27-.68a66.79,66.79,0,0,1-6.45-1.87c-1-.39-2.15-.67-3.17-1.15l-3.11-1.33a15.27,15.27,0,0,1-1.53-.73l-1.5-.8a31.91,31.91,0,0,1-3-1.66l-2.87-1.83c-.94-.63-1.81-1.37-2.72-2.05l-1.36-1c-.44-.36-.84-.76-1.27-1.14l-2.52-2.31-2.31-2.51c-.38-.43-.79-.83-1.14-1.27l-1-1.35c-.68-.91-1.42-1.79-2.06-2.73L14,245.64c-.65-.94-1.12-2-1.67-3l-.79-1.5a13.44,13.44,0,0,1-.74-1.53l-1.34-3.11c-.48-1-.76-2.11-1.16-3.17-.79-2.11-1.31-4.29-1.89-6.45-.32-1.08-.46-2.19-.69-3.28s-.45-2.19-.59-3.29L4.72,217c-.07-.55-.15-1.1-.2-1.65l-.11-1.66-.2-3.31c0-1.1,0-2.21,0-3.31A121.88,121.88,0,0,1,7,181.06a165.23,165.23,0,0,1,7.53-24.84,209.64,209.64,0,0,1,10.83-23.41,233,233,0,0,1,13.36-22Q46,100.27,54.2,90.39T71.47,71.46q-9,9.11-17.32,18.89T38.64,110.78A233.28,233.28,0,0,0,25.22,132.71Z"/><path d="M261.21,16.66c-.45-.4-.88-.83-1.34-1.2l-1.43-1.1c-1-.71-1.88-1.49-2.87-2.15l-3-1.93a31.79,31.79,0,0,0-3.11-1.76l-1.58-.83a14.8,14.8,0,0,0-1.61-.77L243,5.51a12.32,12.32,0,0,0-1.66-.63l-1.67-.58A78.69,78.69,0,0,0,226,1L222.5.56c-.58-.07-1.16-.15-1.74-.2L219,.25,215.56,0c-1.16-.06-2.31,0-3.47,0a127.71,127.71,0,0,0-27.25,3A172,172,0,0,0,158.9,11a217.65,217.65,0,0,0-24.43,11.36,244.65,244.65,0,0,0-22.89,14q-11,7.61-21.32,16.18T70.55,70.55q9.51-9.39,19.75-18t21.36-16.12a242.31,242.31,0,0,1,22.91-13.93A219.82,219.82,0,0,1,159,11.2a171.19,171.19,0,0,1,25.93-7.84,126.61,126.61,0,0,1,27.19-3c1.15,0,2.3,0,3.45,0L219,.65l1.72.11c.58.06,1.15.14,1.73.21l3.45.43a77.68,77.68,0,0,1,13.59,3.33l1.66.57a14.41,14.41,0,0,1,1.65.64l3.24,1.4a13.69,13.69,0,0,1,1.59.77l1.57.83a33.41,33.41,0,0,1,3.08,1.75l3,1.92c1,.66,1.89,1.43,2.84,2.14l1.41,1.09c.46.37.88.79,1.32,1.19l2.63,2.41,2.4,2.63c.4.44.82.87,1.19,1.33l1.09,1.41c.71,1,1.47,1.86,2.13,2.85l1.92,3A33.39,33.39,0,0,1,274,33.74l.83,1.57a13,13,0,0,1,.77,1.59L277,40.14a14.94,14.94,0,0,1,.63,1.64l.57,1.67A78.13,78.13,0,0,1,281.45,57l.42,3.44c.07.58.15,1.15.21,1.73l.1,1.72.21,3.46c.06,1.15,0,2.29,0,3.44a126.28,126.28,0,0,1-3,27.15,171.77,171.77,0,0,1-7.89,25.87,218.41,218.41,0,0,1-11.34,24.37,241.74,241.74,0,0,1-14,22.85q-7.59,11-16.15,21.28T212,212q-9.48,9.39-19.68,18T171.06,246.2a241.74,241.74,0,0,1-22.85,14,218.35,218.35,0,0,1-24.37,11.33A171.81,171.81,0,0,1,98,279.4a126.92,126.92,0,0,1-27.15,3c-1.14,0-2.29,0-3.44,0l-3.46-.21-1.72-.11c-.58-.05-1.15-.13-1.73-.2L57,281.45a77.26,77.26,0,0,1-13.58-3.3l-1.66-.56a16.47,16.47,0,0,1-1.65-.63l-3.24-1.4a13.62,13.62,0,0,1-1.59-.76L33.74,274a33.48,33.48,0,0,1-3.09-1.74l-3-1.91c-1-.66-1.9-1.43-2.85-2.14L23.4,267.1c-.46-.37-.88-.79-1.33-1.19l-2.63-2.4L17,260.88c-.4-.44-.82-.86-1.19-1.32l-1.09-1.41c-.71-.95-1.48-1.86-2.14-2.85l-1.92-3a32.31,32.31,0,0,1-1.75-3.09l-.83-1.56a16.6,16.6,0,0,1-.77-1.59l-1.4-3.25a12.06,12.06,0,0,1-.63-1.64l-.58-1.67a78.22,78.22,0,0,1-3.32-13.58L1,222.48c-.07-.58-.15-1.15-.21-1.73L.66,219l-.22-3.45c-.06-1.15,0-2.3,0-3.45a126.61,126.61,0,0,1,3-27.19A173.5,173.5,0,0,1,11.2,159a219.82,219.82,0,0,1,11.29-24.43,244.41,244.41,0,0,1,13.93-22.91q7.57-11,16.12-21.36t18-19.75Q61.15,80,52.49,90.26T36.31,111.58a243.36,243.36,0,0,0-14,22.89A217.51,217.51,0,0,0,11,158.89a172.5,172.5,0,0,0-7.92,26,127.71,127.71,0,0,0-3,27.25c0,1.15,0,2.31,0,3.46L.25,219l.11,1.73c0,.58.13,1.16.2,1.74L1,226A78.58,78.58,0,0,0,4.3,239.64l.58,1.67A12.32,12.32,0,0,0,5.51,243l1.41,3.27a14.8,14.8,0,0,0,.77,1.61l.83,1.58a31.79,31.79,0,0,0,1.76,3.11l1.93,3c.66,1,1.44,1.91,2.15,2.87l1.1,1.43c.37.46.8.89,1.2,1.34l2.43,2.65,2.65,2.44c.45.4.87.82,1.34,1.2l1.42,1.1c1,.72,1.88,1.49,2.87,2.16l3,1.94a33,33,0,0,0,3.11,1.76l1.58.84a14.89,14.89,0,0,0,1.61.78L40,277.49a14.56,14.56,0,0,0,1.66.64l1.68.58A78.48,78.48,0,0,0,57,282.06l3.47.43,1.73.21,1.74.11,3.48.22c1.16.06,2.31,0,3.47.05a128.27,128.27,0,0,0,27.3-3,171.67,171.67,0,0,0,26-7.87,218.22,218.22,0,0,0,24.49-11.31,243.21,243.21,0,0,0,22.95-14q11.07-7.59,21.4-16.14t19.77-18q9.42-9.53,18-19.78T247,171.6a243.21,243.21,0,0,0,14-22.95,218.22,218.22,0,0,0,11.31-24.49,172.59,172.59,0,0,0,7.87-26,128.11,128.11,0,0,0,3-27.29c0-1.16,0-2.32-.05-3.47l-.22-3.48-.11-1.74c-.06-.58-.14-1.15-.21-1.73L282.06,57a78.48,78.48,0,0,0-3.35-13.68l-.58-1.68a13.88,13.88,0,0,0-.64-1.66l-1.41-3.27a14.89,14.89,0,0,0-.78-1.61l-.84-1.58a31.79,31.79,0,0,0-1.76-3.11l-1.94-3c-.67-1-1.45-1.91-2.16-2.87l-1.1-1.42c-.38-.47-.8-.89-1.2-1.34l-2.44-2.65Z"/></svg>