<svg xmlns="http://www.w3.org/2000/svg" viewBox="0 0 320.64 239.79"><title>7</title><path d="M210,169.84a10.06,10.06,0,0,0,.43-1.74,5.87,5.87,0,0,0-3.19-6.26,9.79,9.79,0,0,0-1.68-.7,10.67,10.67,0,0,0-1.73-.43,21.83,21.83,0,0,0-6.94,0,43,43,0,0,0-12.91,4.35,53.38,53.38,0,0,0-5.79,3.62,39.91,39.91,0,0,0-5.15,4.5,21.83,21.83,0,0,0-4,5.69,10.7,10.7,0,0,0-.63,1.66,9.55,9.55,0,0,0-.38,1.78,5.84,5.84,0,0,0,3.32,6.19,9.42,9.42,0,0,0,1.67.64,10.27,10.27,0,0,0,1.71.38,22.44,22.44,0,0,0,6.85-.21,39.81,39.81,0,0,0,6.56-1.72,53.19,53.19,0,0,0,6.18-2.73,53.94,53.94,0,0,1-6.21,2.66,39.59,39.59,0,0,1-6.56,1.64,21.41,21.41,0,0,1-6.78,0,11.09,11.09,0,0,1-3.25-1.07,6.26,6.26,0,0,1-2.41-2.38,6.12,6.12,0,0,1-.49-3.32,9.24,9.24,0,0,1,.4-1.65,9.58,9.58,0,0,1,.65-1.55,21.74,21.74,0,0,1,4-5.38,38.34,38.34,0,0,1,5.09-4.35,50.76,50.76,0,0,1,11.83-6.18,38.15,38.15,0,0,1,6.48-1.7,21.75,21.75,0,0,1,6.69-.21,10.33,10.33,0,0,1,1.65.36,8.76,8.76,0,0,1,1.57.6,6.05,6.05,0,0,1,2.46,2.3A6.14,6.14,0,0,1,210,168a8.66,8.66,0,0,1-.36,1.68,9.1,9.1,0,0,1-.61,1.6,21.57,21.57,0,0,1-3.89,5.56,40,40,0,0,1-5.1,4.45,52.7,52.7,0,0,1-5.72,3.58,52.29,52.29,0,0,0,5.77-3.52,38.49,38.49,0,0,0,5.15-4.4,22,22,0,0,0,4.08-5.51A9.21,9.21,0,0,0,210,169.84Z"/><path d="M215.65,163.29a10.36,10.36,0,0,0-.1-2.42,8,8,0,0,0-2.23-4.36A10.69,10.69,0,0,0,211.4,155a14.78,14.78,0,0,0-4.45-1.68,27.91,27.91,0,0,0-9.2-.23,54.63,54.63,0,0,0-31.57,16.51,28.21,28.21,0,0,0-5.07,7.69,14.87,14.87,0,0,0-1.15,4.61,10.54,10.54,0,0,0,.15,2.44,8.64,8.64,0,0,0,.82,2.35,9,9,0,0,0,1.48,2,10.54,10.54,0,0,0,1.94,1.47,14.49,14.49,0,0,0,4.43,1.57,28.42,28.42,0,0,0,9.11.05,52.4,52.4,0,0,0,17-5.71,52.54,52.54,0,0,1-17,5.56,27.73,27.73,0,0,1-9-.22,14.16,14.16,0,0,1-4.28-1.62,10.42,10.42,0,0,1-1.82-1.43,8.56,8.56,0,0,1-1.35-1.87,8.65,8.65,0,0,1-.72-2.19,9.77,9.77,0,0,1-.09-2.29,14,14,0,0,1,1.19-4.37,28.13,28.13,0,0,1,5.07-7.37A56.73,56.73,0,0,1,197.91,154a28,28,0,0,1,9,0,14.17,14.17,0,0,1,4.26,1.51,10.21,10.21,0,0,1,1.83,1.38,8.28,8.28,0,0,1,1.38,1.84,8.45,8.45,0,0,1,.77,2.18,10.52,10.52,0,0,1,.14,2.31,14.48,14.48,0,0,1-1.11,4.44,27.73,27.73,0,0,1-5,7.55A52.57,52.57,0,0,1,194.88,186a52.58,52.58,0,0,0,14.38-10.69,28.82,28.82,0,0,0,5.16-7.51A14.47,14.47,0,0,0,215.65,163.29Z"/><path d="M220.9,158.49a13.24,13.24,0,0,0-.18-3,12.58,12.58,0,0,0-1-2.9,12.32,12.32,0,0,0-1.78-2.5,13.49,13.49,0,0,0-2.36-1.92,18.42,18.42,0,0,0-5.47-2.24,34,34,0,0,0-11.46-.48A65.56,65.56,0,0,0,159.38,166a34.23,34.23,0,0,0-6.14,9.69,18.63,18.63,0,0,0-1.28,5.76,13.42,13.42,0,0,0,.23,3,11.88,11.88,0,0,0,1,2.89,12.26,12.26,0,0,0,1.81,2.47,13.17,13.17,0,0,0,2.37,1.87,18.29,18.29,0,0,0,5.46,2.13,34.44,34.44,0,0,0,11.36.31,62.61,62.61,0,0,0,21.24-7,62.51,62.51,0,0,1-21.26,6.8,33.51,33.51,0,0,1-11.29-.47,18.07,18.07,0,0,1-5.31-2.17,12.4,12.4,0,0,1-2.25-1.84,11.35,11.35,0,0,1-1.69-2.37,11.69,11.69,0,0,1-.94-2.74,12.67,12.67,0,0,1-.17-2.88,17.49,17.49,0,0,1,1.33-5.53,34,34,0,0,1,6.14-9.36,67.4,67.4,0,0,1,38.78-20.27,33.93,33.93,0,0,1,11.19.29,17.7,17.7,0,0,1,5.3,2.06,13,13,0,0,1,2.26,1.79,11.23,11.23,0,0,1,1.72,2.33,11.66,11.66,0,0,1,1,2.74,13.46,13.46,0,0,1,.22,2.9,18.09,18.09,0,0,1-1.25,5.59,33.72,33.72,0,0,1-6.05,9.55,62.68,62.68,0,0,1-17.72,13.58,62.56,62.56,0,0,0,17.83-13.48,34.37,34.37,0,0,0,6.24-9.5A18.22,18.22,0,0,0,220.9,158.49Z"/><path d="M226.15,153.69a15.53,15.53,0,0,0-.27-3.59,14.3,14.3,0,0,0-1.21-3.45,14.61,14.61,0,0,0-2.11-3,16.15,16.15,0,0,0-2.78-2.32,21.9,21.9,0,0,0-6.5-2.78,39.91,39.91,0,0,0-13.71-.76,76.75,76.75,0,0,0-47,24.58,39.88,39.88,0,0,0-7.19,11.69A21.78,21.78,0,0,0,144,181a16.33,16.33,0,0,0,.32,3.61,13.13,13.13,0,0,0,3.4,6.4,15.49,15.49,0,0,0,2.79,2.27,21.52,21.52,0,0,0,6.49,2.67,40.28,40.28,0,0,0,13.61.58,73.14,73.14,0,0,0,25.5-8.2,73,73,0,0,1-25.52,8.05,39.55,39.55,0,0,1-13.53-.75,20.91,20.91,0,0,1-6.34-2.71,15.1,15.1,0,0,1-2.68-2.24,14,14,0,0,1-2-2.86,14.36,14.36,0,0,1-1.15-3.3,15,15,0,0,1-.26-3.47,21.1,21.1,0,0,1,1.47-6.68A40.08,40.08,0,0,1,153.24,163a78.38,78.38,0,0,1,46.47-24.3,39.72,39.72,0,0,1,13.44.57,21.06,21.06,0,0,1,6.33,2.6,14.82,14.82,0,0,1,2.69,2.19,14,14,0,0,1,2.06,2.83,14.42,14.42,0,0,1,1.2,3.29,15.71,15.71,0,0,1,.31,3.48,21.22,21.22,0,0,1-1.4,6.75,39.31,39.31,0,0,1-7.1,11.54,72.93,72.93,0,0,1-21.17,16.37,73.12,73.12,0,0,0,21.28-16.26,40,40,0,0,0,7.29-11.51A21.12,21.12,0,0,0,226.15,153.69Z"/><path d="M231.4,148.89a18.33,18.33,0,0,0-.36-4.17,17.41,17.41,0,0,0-1.42-4,18,18,0,0,0-2.44-3.48A18.49,18.49,0,0,0,224,134.5a25.14,25.14,0,0,0-7.53-3.32,46,46,0,0,0-16-1,87.8,87.8,0,0,0-54.69,28.61,45.84,45.84,0,0,0-8.26,13.68,25.27,25.27,0,0,0-1.57,8.08,18.5,18.5,0,0,0,.41,4.19,17.93,17.93,0,0,0,1.46,4,18.42,18.42,0,0,0,2.48,3.45,18.78,18.78,0,0,0,3.23,2.68,24.82,24.82,0,0,0,7.51,3.2,45.93,45.93,0,0,0,15.87.85,83.81,83.81,0,0,0,29.75-9.43,83.72,83.72,0,0,1-29.78,9.28,45.21,45.21,0,0,1-15.78-1,24.68,24.68,0,0,1-7.36-3.24,17.51,17.51,0,0,1-3.12-2.65,15.14,15.14,0,0,1-3.72-7.22,17.71,17.71,0,0,1-.35-4,24.58,24.58,0,0,1,1.62-7.84,45.67,45.67,0,0,1,8.27-13.36,89.38,89.38,0,0,1,54.17-28.32,45.77,45.77,0,0,1,15.68.84,24.15,24.15,0,0,1,7.36,3.13,18.48,18.48,0,0,1,3.13,2.6,17.08,17.08,0,0,1,2.39,3.32,17.68,17.68,0,0,1,1.41,3.86,17.93,17.93,0,0,1,.4,4.06,24.86,24.86,0,0,1-1.54,7.9,45.51,45.51,0,0,1-8.17,13.54,83.76,83.76,0,0,1-24.61,19.16,83.74,83.74,0,0,0,24.72-19.05,46,46,0,0,0,8.36-13.51A25.14,25.14,0,0,0,231.4,148.89Z"/><path d="M236.65,144.1a20.79,20.79,0,0,0-.45-4.77,20.1,20.1,0,0,0-1.63-4.55,20.43,20.43,0,0,0-2.78-4,20.84,20.84,0,0,0-3.64-3.13,28.47,28.47,0,0,0-8.55-3.86,51.7,51.7,0,0,0-18.21-1.3A98.82,98.82,0,0,0,139,155.14a51.55,51.55,0,0,0-9.32,15.69,28.65,28.65,0,0,0-1.72,9.23,21.36,21.36,0,0,0,.5,4.77,18.28,18.28,0,0,0,4.49,8.49,21.42,21.42,0,0,0,3.65,3.09,28.26,28.26,0,0,0,8.55,3.74,51.78,51.78,0,0,0,18.11,1.12,94.26,94.26,0,0,0,34-10.67,94.38,94.38,0,0,1-34,10.52,51.07,51.07,0,0,1-18-1.28,28,28,0,0,1-8.4-3.79,20.53,20.53,0,0,1-3.54-3.05,17.7,17.7,0,0,1-4.27-8.26,20.22,20.22,0,0,1-.44-4.64,27.89,27.89,0,0,1,1.77-9,51.58,51.58,0,0,1,9.33-15.36,93.78,93.78,0,0,1,28-21.73,94,94,0,0,1,33.83-10.62,51.71,51.71,0,0,1,17.94,1.11,27.69,27.69,0,0,1,8.38,3.67,20.37,20.37,0,0,1,3.56,3,19.78,19.78,0,0,1,2.72,3.82,19.32,19.32,0,0,1,1.63,4.41,20.24,20.24,0,0,1,.48,4.65,28,28,0,0,1-1.68,9.05,51.17,51.17,0,0,1-9.23,15.54,94.26,94.26,0,0,1-28,21.94,94.28,94.28,0,0,0,28.16-21.84,52,52,0,0,0,9.42-15.51A28.19,28.19,0,0,0,236.65,144.1Z"/><path d="M241.9,139.3a23.65,23.65,0,0,0-.54-5.35,23,23,0,0,0-1.84-5.11,22.32,22.32,0,0,0-3.12-4.46,23.49,23.49,0,0,0-4.06-3.54,31.65,31.65,0,0,0-9.59-4.39,57.54,57.54,0,0,0-20.45-1.58,110,110,0,0,0-70.1,36.66,57.6,57.6,0,0,0-10.37,17.69A31.81,31.81,0,0,0,120,179.6a21.58,21.58,0,0,0,9.7,18.38,31.6,31.6,0,0,0,9.57,4.28,57.68,57.68,0,0,0,20.36,1.39,104.57,104.57,0,0,0,38.26-11.91,104.69,104.69,0,0,1-38.28,11.76A57.17,57.17,0,0,1,139.31,202a31.6,31.6,0,0,1-9.43-4.32,23.3,23.3,0,0,1-4-3.46,22.52,22.52,0,0,1-3-4.34,22.21,22.21,0,0,1-1.79-5,23.06,23.06,0,0,1-.52-5.22,31.06,31.06,0,0,1,1.91-10.14,57.39,57.39,0,0,1,10.39-17.35,104.31,104.31,0,0,1,31.47-24.52,104.45,104.45,0,0,1,38.09-11.85,57.32,57.32,0,0,1,20.18,1.37,31.18,31.18,0,0,1,9.41,4.21A20.56,20.56,0,0,1,240.91,134a23.09,23.09,0,0,1,.57,5.23,31.23,31.23,0,0,1-1.83,10.21A57,57,0,0,1,229.36,167a104.59,104.59,0,0,1-31.5,24.73,104.77,104.77,0,0,0,31.62-24.63A57.67,57.67,0,0,0,240,149.6,31.63,31.63,0,0,0,241.9,139.3Z"/><path d="M245.08,146a35.17,35.17,0,0,0,2.08-11.47,24.78,24.78,0,0,0-2.69-11.6,25,25,0,0,0-8-8.88,35.52,35.52,0,0,0-10.61-4.91,63.81,63.81,0,0,0-22.68-1.82c-15.05,1.34-29.48,6.14-42.72,13s-25.36,16.08-35,27.68A63.68,63.68,0,0,0,114,167.62a35.47,35.47,0,0,0-2,11.52,26.59,26.59,0,0,0,.67,5.94,23.09,23.09,0,0,0,5.57,10.58,26.16,26.16,0,0,0,4.51,3.91,35.37,35.37,0,0,0,10.6,4.83A63.21,63.21,0,0,0,156,206.08c15-1.41,29.35-6.29,42.51-13.19-13.2,6.82-27.58,11.61-42.55,12.93a63.21,63.21,0,0,1-22.5-1.8A34.71,34.71,0,0,1,123,199.19a26,26,0,0,1-4.41-3.86,25.26,25.26,0,0,1-3.37-4.82,25.62,25.62,0,0,1-2-5.53,26.56,26.56,0,0,1-.62-5.81,35.12,35.12,0,0,1,2-11.3A63,63,0,0,1,126,148.5c9.67-11.45,21.82-20.43,35-27.27s27.42-11.74,42.34-13.14a62.83,62.83,0,0,1,22.44,1.66,34.83,34.83,0,0,1,10.44,4.76,25.92,25.92,0,0,1,4.42,3.82,25.29,25.29,0,0,1,3.39,4.81,24.74,24.74,0,0,1,2,5.52,25.37,25.37,0,0,1,.65,5.81,34.78,34.78,0,0,1-2,11.35,63.15,63.15,0,0,1-11.36,19.5c-9.63,11.54-21.76,20.62-34.9,27.57,13.18-6.87,25.38-15.88,35.1-27.39A63.23,63.23,0,0,0,245.08,146Z"/><path d="M237.6,163.85a69.2,69.2,0,0,0,12.58-21.53,38.78,38.78,0,0,0,2.23-12.62,29.32,29.32,0,0,0-.72-6.51,25.84,25.84,0,0,0-6.07-11.66,29.32,29.32,0,0,0-4.92-4.34,39.14,39.14,0,0,0-11.64-5.45,69.52,69.52,0,0,0-24.93-2.08,113.68,113.68,0,0,0-24.24,4.82c-3.92,1.23-7.79,2.64-11.58,4.19s-7.51,3.33-11.16,5.21-7.17,4-10.64,6.19-6.81,4.61-10.06,7.13a113.57,113.57,0,0,0-17.79,17.15A69.79,69.79,0,0,0,106.15,166,38.8,38.8,0,0,0,104,178.68a29.38,29.38,0,0,0,.75,6.52,28.61,28.61,0,0,0,2.3,6.21,28.18,28.18,0,0,0,3.82,5.42,28.82,28.82,0,0,0,4.93,4.31,38.92,38.92,0,0,0,11.64,5.37,69.3,69.3,0,0,0,24.86,2,113.47,113.47,0,0,0,24.14-4.94q5.87-1.87,11.53-4.24t11.1-5.25q-5.46,2.81-11.12,5.19c-3.79,1.55-7.64,2.95-11.55,4.17a112.88,112.88,0,0,1-24.14,4.81c-8.21.63-16.64.3-24.74-2.07A38.21,38.21,0,0,1,116,200.76a28.37,28.37,0,0,1-4.84-4.26,25.36,25.36,0,0,1-5.93-11.4,28.76,28.76,0,0,1-.7-6.39,38.18,38.18,0,0,1,2.19-12.45,68.9,68.9,0,0,1,12.5-21.37c10.59-12.63,23.95-22.53,38.39-30.06s30.18-12.89,46.6-14.38a68.7,68.7,0,0,1,24.68,1.93,38.21,38.21,0,0,1,11.47,5.3,28.64,28.64,0,0,1,4.85,4.23A28,28,0,0,1,249,117.2a27.61,27.61,0,0,1,2.25,6.08,28.32,28.32,0,0,1,.74,6.4,38.16,38.16,0,0,1-2.14,12.49,68.92,68.92,0,0,1-12.42,21.5,113.19,113.19,0,0,1-17.72,17.09c-3.23,2.51-6.58,4.87-10,7.1s-7,4.25-10.6,6.17q5.43-2.85,10.64-6.12t10.06-7A113,113,0,0,0,237.6,163.85Z"/><path d="M241.64,162.2c5.71-6.95,10.69-14.74,13.64-23.52a42,42,0,0,0,2.37-13.77,31.62,31.62,0,0,0-.8-7.1,28.27,28.27,0,0,0-6.61-12.7,31.77,31.77,0,0,0-5.36-4.75,42.38,42.38,0,0,0-12.67-6C223.3,91.74,214,91.34,205,92a123.22,123.22,0,0,0-26.44,5.22q-6.42,2-12.63,4.56t-12.17,5.68q-5.93,3.15-11.6,6.75t-11,7.78a123.38,123.38,0,0,0-19.37,18.73c-5.69,7-10.64,14.84-13.57,23.66A42.77,42.77,0,0,0,96,178.22a32.26,32.26,0,0,0,.84,7.1A28.42,28.42,0,0,0,103.49,198a32,32,0,0,0,5.37,4.71,42.12,42.12,0,0,0,12.66,5.91c8.9,2.59,18.13,2.94,27.11,2.22A122.39,122.39,0,0,0,175,205.5q6.41-2,12.58-4.61t12.11-5.72q-6,3.06-12.13,5.66t-12.6,4.55a123,123,0,0,1-26.33,5.2c-9,.68-18.17.27-27-2.34a41.83,41.83,0,0,1-12.51-5.91,30.66,30.66,0,0,1-5.27-4.66,27.77,27.77,0,0,1-6.48-12.45,31.66,31.66,0,0,1-.79-7,41.82,41.82,0,0,1,2.34-13.59c2.93-8.71,7.87-16.45,13.56-23.37a121.83,121.83,0,0,1,19.34-18.52q5.3-4.08,10.93-7.68t11.57-6.65c3.95-2.05,8-4,12.07-5.7s8.29-3.25,12.54-4.6a121.58,121.58,0,0,1,26.24-5.31c8.93-.73,18.11-.37,26.92,2.19a42.12,42.12,0,0,1,12.51,5.84,30.86,30.86,0,0,1,5.27,4.63,30.47,30.47,0,0,1,4.07,5.79,29.83,29.83,0,0,1,3.29,13.61,42.18,42.18,0,0,1-2.29,13.65c-2.89,8.74-7.81,16.53-13.48,23.5a123.31,123.31,0,0,1-19.29,18.66q-5.29,4.11-10.93,7.75t-11.56,6.73q5.93-3.1,11.6-6.67t11-7.7A122.8,122.8,0,0,0,241.64,162.2Z"/><path d="M245.68,160.56c6.18-7.55,11.53-16,14.7-25.53a45.91,45.91,0,0,0,2.52-14.92,33.85,33.85,0,0,0-.9-7.68,33.43,33.43,0,0,0-2.69-7.33,33,33,0,0,0-10.25-11.57A45.83,45.83,0,0,0,235.37,87c-9.65-2.88-19.67-3.35-29.42-2.62A132.06,132.06,0,0,0,177.32,90q-7,2.16-13.69,4.93t-13.18,6.15c-4.27,2.27-8.47,4.71-12.56,7.31s-8,5.45-11.86,8.43a132.76,132.76,0,0,0-21,20.31c-6.16,7.6-11.49,16.09-14.62,25.66a45.66,45.66,0,0,0-2.46,15,34.63,34.63,0,0,0,.92,7.7,32.19,32.19,0,0,0,13,18.83,45.75,45.75,0,0,0,13.69,6.45c9.63,2.83,19.63,3.25,29.35,2.48a132.51,132.51,0,0,0,28.54-5.72q6.93-2.2,13.63-5t13.11-6.18q-6.44,3.3-13.13,6.12t-13.65,4.92A132,132,0,0,1,144.94,213c-9.71.73-19.68.25-29.24-2.6a45.44,45.44,0,0,1-13.54-6.45,34.13,34.13,0,0,1-5.69-5.06,33.47,33.47,0,0,1-4.38-6.3,32.17,32.17,0,0,1-3.52-14.76A45.05,45.05,0,0,1,91.06,163c3.14-9.44,8.46-17.85,14.61-25.36a131.67,131.67,0,0,1,20.92-20.1q5.73-4.42,11.83-8.33T151,102c4.28-2.21,8.64-4.28,13.08-6.16s9-3.51,13.59-5a131.76,131.76,0,0,1,28.43-5.71c9.68-.77,19.63-.34,29.18,2.47A45,45,0,0,1,248.76,94a34,34,0,0,1,5.7,5,31.58,31.58,0,0,1,8,21A45.24,45.24,0,0,1,260,134.88c-3.11,9.48-8.41,17.94-14.54,25.5a132.26,132.26,0,0,1-20.87,20.24q-5.73,4.45-11.83,8.4t-12.53,7.3q6.42-3.37,12.57-7.24t11.87-8.35A133,133,0,0,0,245.68,160.56Z"/><path d="M249.72,158.91c6.64-8.14,12.38-17.26,15.76-27.53a49.07,49.07,0,0,0,2.66-16.07,36.14,36.14,0,0,0-1-8.26,36.64,36.64,0,0,0-2.9-7.89,35.92,35.92,0,0,0-4.8-6.9,36.77,36.77,0,0,0-6.21-5.56,49.62,49.62,0,0,0-14.73-7.06c-10.37-3.12-21.16-3.66-31.66-2.89a141.73,141.73,0,0,0-30.83,6q-7.49,2.33-14.74,5.3t-14.18,6.61q-6.92,3.69-13.52,7.88t-12.77,9.08a141.8,141.8,0,0,0-22.53,21.9c-6.62,8.18-12.33,17.34-15.68,27.65A49.27,49.27,0,0,0,80,177.29a35.53,35.53,0,0,0,4,16.15,35.63,35.63,0,0,0,11,12.41,48.93,48.93,0,0,0,14.71,7c10.36,3.08,21.13,3.57,31.6,2.76a141.47,141.47,0,0,0,30.74-6.12q7.47-2.35,14.68-5.36c3.14-1.33,6.23-2.77,9.3-4.26-3.07,1.48-6.18,2.89-9.32,4.2q-7.23,3-14.7,5.29a141.52,141.52,0,0,1-30.73,6c-10.46.76-21.19.23-31.48-2.87a49.16,49.16,0,0,1-14.57-7A36.52,36.52,0,0,1,89.11,200a34.31,34.31,0,0,1-8.54-22.69,48.7,48.7,0,0,1,2.64-15.9c3.35-10.18,9.06-19.26,15.67-27.36a140.64,140.64,0,0,1,22.5-21.68q6.16-4.77,12.74-9t13.48-7.78c4.61-2.38,9.3-4.61,14.09-6.63s9.68-3.78,14.64-5.34A140.11,140.11,0,0,1,207,77.55c10.43-.81,21.14-.32,31.42,2.73a48.67,48.67,0,0,1,14.56,6.91,36.81,36.81,0,0,1,6.14,5.44,32.8,32.8,0,0,1,7.62,14.51,36.28,36.28,0,0,1,1,8.15,49,49,0,0,1-2.58,16c-3.32,10.22-9,19.34-15.6,27.49a141.65,141.65,0,0,1-22.45,21.82q-6.16,4.81-12.73,9c-2.88,1.84-5.81,3.58-8.78,5.26,3-1.66,5.93-3.38,8.81-5.2q6.58-4.22,12.78-9A141.94,141.94,0,0,0,249.72,158.91Z"/><path d="M200.85,197.46c-1.59.82-3.21,1.61-4.82,2.39C197.64,199.07,199.26,198.29,200.85,197.46Z"/><path d="M205.56,194.86c-1.56.89-3.12,1.76-4.71,2.6C202.44,196.62,204,195.74,205.56,194.86Z"/><path d="M253.76,157.26c7.09-8.73,13.22-18.52,16.82-29.52a52.77,52.77,0,0,0,2.81-17.22,36.72,36.72,0,0,0-9.31-24.69,39.94,39.94,0,0,0-6.65-6,52.8,52.8,0,0,0-15.75-7.59c-11.11-3.37-22.66-4-33.91-3.16a151.26,151.26,0,0,0-33,6.39q-8,2.49-15.79,5.68t-15.19,7.08c-4.93,2.63-9.77,5.43-14.48,8.44S120,103,115.61,106.44A151.2,151.2,0,0,0,91.5,129.92c-7.07,8.77-13.18,18.6-16.74,29.64A52.8,52.8,0,0,0,72,176.83a37.37,37.37,0,0,0,16,30.59,52.72,52.72,0,0,0,15.75,7.52c11.09,3.33,22.62,3.88,33.84,3a151.14,151.14,0,0,0,32.94-6.52c5.33-1.67,10.58-3.59,15.73-5.72s10.18-4.56,15.13-7.13q-7.44,3.83-15.15,7.07t-15.75,5.66a150.46,150.46,0,0,1-32.93,6.37c-11.2.81-22.71.21-33.72-3.14a52.51,52.51,0,0,1-15.6-7.51,39.31,39.31,0,0,1-6.56-5.88,38.57,38.57,0,0,1-5-7.28,37.78,37.78,0,0,1-4.12-17,51.93,51.93,0,0,1,2.78-17.06c3.57-10.92,9.67-20.66,16.74-29.35a149.92,149.92,0,0,1,24.06-23.26q6.61-5.11,13.65-9.63t14.44-8.34c4.94-2.56,10-4.94,15.1-7.1s10.37-4,15.69-5.72a150.83,150.83,0,0,1,32.83-6.49c11.17-.85,22.66-.29,33.66,3a52.17,52.17,0,0,1,15.59,7.45,36,36,0,0,1,14.74,21.4,39.15,39.15,0,0,1,1.08,8.74,52.06,52.06,0,0,1-2.72,17.09c-3.54,11-9.61,20.75-16.66,29.49a150.63,150.63,0,0,1-24,23.4q-6.6,5.16-13.63,9.71c-4.7,3-9.53,5.8-14.45,8.41,4.93-2.59,9.77-5.38,14.48-8.36s9.26-6.23,13.68-9.65A150.92,150.92,0,0,0,253.76,157.26Z"/><path d="M257.8,155.61c7.55-9.32,14.07-19.77,17.88-31.52a56.16,56.16,0,0,0,3-18.37,42.39,42.39,0,0,0-1.16-9.43,38.34,38.34,0,0,0-8.79-16.89A42.66,42.66,0,0,0,261.61,73a56.43,56.43,0,0,0-16.78-8.13c-11.83-3.62-24.15-4.27-36.15-3.43a160.82,160.82,0,0,0-35.23,6.79q-8.55,2.66-16.84,6t-16.2,7.55q-7.89,4.2-15.44,9t-14.58,10.38a161,161,0,0,0-25.68,25.06c-7.53,9.36-14,19.86-17.8,31.64A56.46,56.46,0,0,0,64,176.37a39.23,39.23,0,0,0,10,26.29A42.5,42.5,0,0,0,81.13,209a56.22,56.22,0,0,0,16.78,8.06c11.82,3.57,24.12,4.18,36.08,3.29a160.09,160.09,0,0,0,35.14-6.9q8.53-2.69,16.78-6.1c5.48-2.31,10.86-4.86,16.14-7.59q-7.94,4.06-16.17,7.53t-16.79,6A160.73,160.73,0,0,1,134,220.08c-12,.84-24.22.18-36-3.41a56,56,0,0,1-16.62-8A40.5,40.5,0,0,1,69,194.57a40.63,40.63,0,0,1-4.42-18.18,55.83,55.83,0,0,1,2.93-18.2c3.78-11.66,10.27-22.07,17.8-31.35A159.75,159.75,0,0,1,111,102q7-5.48,14.55-10.28t15.41-8.9c5.27-2.73,10.63-5.27,16.1-7.57s11.07-4.31,16.74-6.09a159.91,159.91,0,0,1,35-6.88c11.92-.89,24.17-.28,35.9,3.27a55.77,55.77,0,0,1,16.62,8,40.44,40.44,0,0,1,12.41,14,40.61,40.61,0,0,1,4.48,18.18A56.12,56.12,0,0,1,275.32,124c-3.75,11.69-10.21,22.15-17.72,31.48a160.11,160.11,0,0,1-25.61,25q-7,5.49-14.53,10.35t-15.41,9q7.89-4.17,15.44-8.92t14.58-10.31A160.33,160.33,0,0,0,257.8,155.61Z"/><path d="M261.84,154c8-9.92,14.91-21,18.94-33.51a59.92,59.92,0,0,0,3.1-19.53,45.26,45.26,0,0,0-1.24-10A40.79,40.79,0,0,0,273.3,73a45,45,0,0,0-7.51-6.77A59.85,59.85,0,0,0,248,57.55c-12.57-3.87-25.66-4.58-38.4-3.7A169.91,169.91,0,0,0,172.16,61q-9.09,2.8-17.89,6.42t-17.21,8q-8.38,4.45-16.4,9.56t-15.48,11A169.49,169.49,0,0,0,77.93,122.7c-8,10-14.88,21.12-18.87,33.64a59.58,59.58,0,0,0-3,19.57,41.8,41.8,0,0,0,10.66,27.92,45.22,45.22,0,0,0,7.52,6.73,59.8,59.8,0,0,0,17.8,8.6c12.55,3.81,25.62,4.48,38.33,3.56a170.24,170.24,0,0,0,37.34-7.3q9.06-2.83,17.83-6.47t17.15-8.06q-8.43,4.34-17.18,8t-17.84,6.4a169.71,169.71,0,0,1-37.33,7.17c-12.7.88-25.73.16-38.21-3.68a59.34,59.34,0,0,1-17.65-8.59A45.15,45.15,0,0,1,67,203.51a40.3,40.3,0,0,1-9.21-17.68,44.94,44.94,0,0,1-1.23-9.9,59.49,59.49,0,0,1,3.08-19.35c4-12.4,10.87-23.47,18.86-33.35a169.16,169.16,0,0,1,27.22-26.42q7.49-5.82,15.45-10.93t16.37-9.46c5.6-2.9,11.3-5.6,17.11-8s11.76-4.56,17.79-6.45a169.47,169.47,0,0,1,37.23-7.28c12.67-.92,25.68-.25,38.15,3.54a59.38,59.38,0,0,1,17.65,8.52,43.45,43.45,0,0,1,13.17,14.89A44.1,44.1,0,0,1,282.18,91a45,45,0,0,1,1.26,9.91,59.45,59.45,0,0,1-3,19.39c-4,12.44-10.82,23.56-18.78,33.48a170.29,170.29,0,0,1-27.18,26.57q-7.49,5.85-15.45,11c-5.32,3.4-10.79,6.57-16.36,9.54q8.37-4.42,16.4-9.48t15.49-10.95A170.17,170.17,0,0,0,261.84,154Z"/><path d="M265.87,152.31c8.48-10.51,15.77-22.29,20-35.51a63.25,63.25,0,0,0,3.25-20.67,48.22,48.22,0,0,0-1.33-10.6l-.7-2.61c-.24-.86-.6-1.69-.89-2.55l-.46-1.26c-.16-.42-.37-.83-.56-1.24l-1.14-2.45-1.36-2.34c-.23-.39-.44-.79-.69-1.16l-.77-1.11c-.53-.73-1-1.5-1.58-2.19l-1.73-2.07A48.53,48.53,0,0,0,270,59.38a63.76,63.76,0,0,0-18.84-9.2c-13.29-4.11-27.15-4.89-40.63-4a180,180,0,0,0-39.64,7.58q-9.62,3-18.94,6.79t-18.21,8.49q-8.88,4.71-17.37,10.12T100,90.87a179.75,179.75,0,0,0-28.83,28.22c-8.45,10.55-15.72,22.38-19.93,35.64A63.51,63.51,0,0,0,48,175.45a47.09,47.09,0,0,0,1.36,10.6l.71,2.61c.24.86.6,1.69.89,2.54l.47,1.27c.16.42.38.82.56,1.23l1.15,2.45,1.36,2.34c.24.39.44.79.7,1.16l.78,1.1c.53.73,1,1.5,1.58,2.19L59.32,205a48,48,0,0,0,7.95,7.14,63.12,63.12,0,0,0,18.83,9.12c13.28,4.07,27.11,4.8,40.57,3.84a179.23,179.23,0,0,0,39.54-7.7q9.6-3,18.88-6.84c6.17-2.59,12.22-5.45,18.15-8.53-5.94,3.06-12,5.9-18.18,8.47s-12.49,4.8-18.89,6.78a179.25,179.25,0,0,1-39.53,7.55c-13.44.92-27.25.14-40.45-4a62.58,62.58,0,0,1-18.68-9.12,47.47,47.47,0,0,1-7.85-7.08l-1.71-2c-.56-.69-1-1.45-1.56-2.17l-.77-1.09c-.25-.37-.45-.77-.68-1.15l-1.34-2.31-1.12-2.42c-.19-.41-.4-.8-.55-1.22L51.47,191c-.29-.84-.64-1.66-.88-2.51L49.9,186a47.13,47.13,0,0,1-1.31-10.48A62.87,62.87,0,0,1,51.81,155c4.22-13.14,11.48-24.88,19.92-35.35a179.08,179.08,0,0,1,28.8-28q7.92-6.15,16.35-11.57t17.33-10q8.89-4.59,18.12-8.51t18.84-6.82A178.45,178.45,0,0,1,210.6,47c13.42-1,27.2-.23,40.39,3.81a62.74,62.74,0,0,1,18.68,9,46.87,46.87,0,0,1,7.86,7.05l1.71,2c.57.69,1,1.45,1.57,2.16l.76,1.09c.25.37.46.77.69,1.15l1.34,2.3,1.14,2.42c.18.41.39.8.55,1.22l.46,1.25c.29.84.65,1.66.89,2.51l.7,2.57a47.19,47.19,0,0,1,1.34,10.49,62.91,62.91,0,0,1-3.17,20.55c-4.17,13.17-11.41,25-19.83,35.47a179.29,179.29,0,0,1-28.76,28.15q-7.92,6.19-16.35,11.65T203.24,202q8.88-4.68,17.37-10T237,180.39A179.52,179.52,0,0,0,265.87,152.31Z"/><path d="M269.91,150.66c8.93-11.1,16.61-23.54,21.07-37.51a66.94,66.94,0,0,0,3.39-21.82A50.66,50.66,0,0,0,293,80.14l-.74-2.74c-.26-.91-.63-1.79-.94-2.69l-.49-1.34c-.17-.44-.39-.86-.59-1.3L289,69.49,287.57,67c-.25-.4-.47-.83-.73-1.22L286,64.62c-.56-.77-1.07-1.58-1.66-2.31l-1.83-2.18a50.9,50.9,0,0,0-8.37-7.58,67.18,67.18,0,0,0-19.86-9.73c-14-4.36-28.65-5.2-42.88-4.24a188.44,188.44,0,0,0-41.84,8q-10.16,3.14-20,7.16t-19.22,9Q121,67.64,112,73.35T94.76,85.68a188.76,188.76,0,0,0-30.41,29.8c-8.91,11.15-16.57,23.64-21,37.64A67.19,67.19,0,0,0,40,175a51.33,51.33,0,0,0,1.45,11.2l.75,2.74c.26.91.63,1.79,1,2.69l.49,1.34c.17.44.39.86.59,1.29l1.21,2.59,1.44,2.47c.25.4.47.83.73,1.22l.82,1.16c.56.77,1.07,1.58,1.67,2.31L52,206.17a51.13,51.13,0,0,0,8.38,7.54,67,67,0,0,0,19.86,9.66c14,4.31,28.61,5.1,42.82,4.1a188.88,188.88,0,0,0,41.74-8.08q10.13-3.16,19.93-7.21c6.51-2.74,12.9-5.76,19.16-9q-9.41,4.84-19.19,8.93t-20,7.15a188.62,188.62,0,0,1-41.72,8c-14.19,1-28.76.11-42.7-4.22a66.43,66.43,0,0,1-19.71-9.66,49.7,49.7,0,0,1-8.27-7.49l-1.81-2.15c-.59-.73-1.09-1.53-1.64-2.29L48,200.25c-.27-.39-.48-.81-.72-1.21l-1.41-2.44L44.71,194c-.19-.43-.41-.84-.58-1.28l-.48-1.32c-.31-.89-.67-1.76-.93-2.66L42,186.07A50,50,0,0,1,40.59,175,66.57,66.57,0,0,1,44,153.35c4.43-13.88,12.08-26.28,21-37.34A188.08,188.08,0,0,1,95.32,86.42q8.36-6.49,17.25-12.23t18.29-10.58c6.26-3.23,12.63-6.24,19.13-9s13.15-5.09,19.89-7.19a188.6,188.6,0,0,1,41.63-8.07c14.16-1,28.71-.2,42.64,4.08A66.55,66.55,0,0,1,273.85,53a50,50,0,0,1,8.29,7.45L284,62.64c.59.73,1.1,1.52,1.65,2.28l.81,1.15c.26.39.48.81.72,1.21l1.42,2.44,1.2,2.55c.19.43.41.85.58,1.28l.49,1.32c.31.89.68,1.76.94,2.66l.74,2.71a50.06,50.06,0,0,1,1.43,11.07,66.61,66.61,0,0,1-3.32,21.7c-4.39,13.92-12,26.36-20.9,37.47a188.24,188.24,0,0,1-30.33,29.73q-8.35,6.54-17.25,12.31t-18.29,10.66c6.25-3.3,12.36-6.82,18.33-10.61s11.71-7.91,17.29-12.25A188.52,188.52,0,0,0,269.91,150.66Z"/><path d="M274,149c9.39-11.69,17.46-24.8,22.13-39.5a70.67,70.67,0,0,0,3.54-23,53.46,53.46,0,0,0-1.5-11.77l-.78-2.88c-.28-1-.67-1.89-1-2.83l-.52-1.41c-.18-.47-.41-.91-.62-1.37l-1.27-2.72-1.5-2.6c-.26-.43-.49-.88-.77-1.29l-.86-1.23c-.58-.81-1.12-1.66-1.75-2.43l-1.92-2.3a53.62,53.62,0,0,0-8.8-8,70.81,70.81,0,0,0-20.89-10.27c-14.75-4.6-30.14-5.5-45.12-4.51a198.5,198.5,0,0,0-44,8.37q-10.7,3.28-21,7.53T127,56.26q-9.85,5.25-19.28,11.24t-18.19,13a198.18,198.18,0,0,0-32,31.38c-9.37,11.74-17.41,24.89-22.05,39.63a70.68,70.68,0,0,0-3.48,23,53.51,53.51,0,0,0,1.53,11.78l.79,2.89c.28.95.67,1.88,1,2.82l.52,1.41c.18.47.41.91.62,1.37l1.28,2.72,1.51,2.59c.26.43.49.88.77,1.29l.86,1.23c.59.8,1.13,1.65,1.76,2.43l1.92,2.28a53.46,53.46,0,0,0,8.81,7.95,70.37,70.37,0,0,0,20.89,10.2c14.74,4.55,30.11,5.41,45.06,4.37a198.46,198.46,0,0,0,43.94-8.48q10.67-3.31,21-7.58t20.17-9.47q-9.91,5.1-20.2,9.41t-21,7.51a197.72,197.72,0,0,1-43.92,8.34c-14.94,1-30.28.1-44.94-4.48a70,70,0,0,1-20.74-10.19,53.4,53.4,0,0,1-8.71-7.9L43,204.74c-.62-.77-1.15-1.61-1.73-2.41l-.85-1.21c-.27-.41-.5-.85-.75-1.28l-1.49-2.57L37,194.58c-.2-.45-.43-.89-.61-1.35l-.51-1.39c-.32-.93-.71-1.85-1-2.79l-.77-2.86a52.89,52.89,0,0,1-1.48-11.65,69.48,69.48,0,0,1,3.52-22.8c4.64-14.62,12.67-27.69,22-39.34a197.91,197.91,0,0,1,32-31.17q8.79-6.84,18.16-12.88t19.25-11.14q9.87-5.12,20.13-9.45t20.94-7.56a197.12,197.12,0,0,1,43.83-8.46c14.91-1,30.23-.18,44.88,4.35A69.66,69.66,0,0,1,278,46.21a52.37,52.37,0,0,1,8.72,7.86l1.91,2.26c.62.77,1.15,1.6,1.73,2.4l.86,1.21c.27.41.5.85.76,1.28l1.49,2.56,1.26,2.69c.2.45.44.89.62,1.35l.51,1.39c.32.93.71,1.85,1,2.8l.78,2.85a52.94,52.94,0,0,1,1.51,11.66,69.67,69.67,0,0,1-3.46,22.84c-4.61,14.66-12.62,27.77-22,39.47a197.66,197.66,0,0,1-31.91,31.31q-8.79,6.88-18.15,13t-19.25,11.22q9.85-5.2,19.29-11.16t18.19-12.91A197.54,197.54,0,0,0,274,149Z"/><path d="M278,147.36a152.63,152.63,0,0,0,13.45-19.56,111.77,111.77,0,0,0,9.73-21.94,73.51,73.51,0,0,0,3.69-24.12,55.74,55.74,0,0,0-1.58-12.36l-.82-3c-.29-1-.7-2-1-3l-.54-1.48c-.2-.49-.44-1-.66-1.44l-1.33-2.85-1.58-2.73c-.27-.45-.51-.92-.8-1.36l-.9-1.29c-.62-.85-1.18-1.74-1.84-2.56l-2-2.41a56.8,56.8,0,0,0-9.23-8.38,73.92,73.92,0,0,0-21.92-10.8A111.6,111.6,0,0,0,237,23.49a152.19,152.19,0,0,0-23.77-.18A208.05,208.05,0,0,0,167,32.06q-11.23,3.46-22.09,7.9t-21.25,9.9q-10.35,5.51-20.24,11.8T84.34,75.3a207.26,207.26,0,0,0-33.57,33A150.05,150.05,0,0,0,37.36,127.9a111.83,111.83,0,0,0-9.7,22A74.34,74.34,0,0,0,24,174.06a56.4,56.4,0,0,0,1.62,12.36l.83,3c.29,1,.7,2,1.05,3l.54,1.48c.2.48.44.95.66,1.43l1.34,2.85,1.58,2.73c.27.45.52.91.81,1.35l.91,1.29c.61.84,1.18,1.73,1.84,2.55l2,2.4a56.18,56.18,0,0,0,9.24,8.35,73.84,73.84,0,0,0,21.92,10.73A110.64,110.64,0,0,0,92,232.1a150.45,150.45,0,0,0,23.73.12,207.45,207.45,0,0,0,46.14-8.87q11.19-3.48,22-7.95T205,205.46q-10.41,5.35-21.21,9.88t-22.05,7.88A206.73,206.73,0,0,1,115.66,232a151.29,151.29,0,0,1-23.7-.18,111.69,111.69,0,0,1-23.48-4.57,73.66,73.66,0,0,1-21.77-10.73,55.27,55.27,0,0,1-9.14-8.3l-2-2.39c-.65-.8-1.21-1.68-1.82-2.52L32.87,202c-.29-.43-.53-.89-.8-1.34L30.51,198l-1.32-2.82c-.21-.48-.45-.94-.64-1.42L28,192.24c-.35-1-.75-1.94-1-2.93l-.81-3a55.69,55.69,0,0,1-1.57-12.23,73.36,73.36,0,0,1,3.67-24A110.44,110.44,0,0,1,38,128.29a151.64,151.64,0,0,1,13.4-19.5A207.27,207.27,0,0,1,84.89,76Q94.13,68.85,104,62.51t20.21-11.7q10.38-5.37,21.14-9.92t22-7.93a207.27,207.27,0,0,1,46-8.86,150.76,150.76,0,0,1,23.66.12,110.73,110.73,0,0,1,23.46,4.5,73.28,73.28,0,0,1,21.76,10.66,54.26,54.26,0,0,1,9.15,8.26l2,2.38c.66.8,1.21,1.68,1.82,2.52l.9,1.28c.29.43.53.89.8,1.33l1.57,2.7,1.32,2.82c.22.47.46.93.65,1.42l.54,1.46c.34,1,.75,1.94,1,2.93l.82,3a55.82,55.82,0,0,1,1.6,12.24,73.69,73.69,0,0,1-3.61,24,110.73,110.73,0,0,1-9.65,21.89,150.49,150.49,0,0,1-13.37,19.57,206.28,206.28,0,0,1-33.49,32.89q-9.21,7.25-19.05,13.61T205,205.46q10.35-5.46,20.24-11.72t19.1-13.56A207.39,207.39,0,0,0,278,147.36Z"/><path d="M265.38,163.94A201.27,201.27,0,0,0,282,145.71,158.63,158.63,0,0,0,296.1,125.2a116.32,116.32,0,0,0,10.17-23,77.43,77.43,0,0,0,3.84-25.27A58.62,58.62,0,0,0,308.44,64l-.86-3.17c-.31-1-.73-2.07-1.1-3.11l-.56-1.55c-.2-.51-.46-1-.68-1.5l-1.4-3-1.65-2.86c-.29-.47-.54-1-.85-1.42l-.94-1.35c-.64-.89-1.24-1.82-1.92-2.68l-2.11-2.52a59.09,59.09,0,0,0-9.66-8.79,77.67,77.67,0,0,0-22.95-11.34,117.16,117.16,0,0,0-24.71-4.83,158.1,158.1,0,0,0-24.9-.21,201.2,201.2,0,0,0-24.53,3.21,226,226,0,0,0-23.9,5.93Q154,28.44,142.58,33.09T120.33,43.46q-10.85,5.76-21.21,12.36t-20,14.29A226.1,226.1,0,0,0,60.61,86.35,200.71,200.71,0,0,0,44,104.66a158,158,0,0,0-14,20.57,117,117,0,0,0-10.13,23A77.24,77.24,0,0,0,16,173.6a58.66,58.66,0,0,0,1.7,12.94l.87,3.18c.31,1.05.74,2.07,1.1,3.1l.57,1.55c.2.51.46,1,.69,1.5l1.4,3L24,201.71c.28.47.54,1,.85,1.42l.94,1.35c.65.89,1.24,1.82,1.93,2.67l2.12,2.52a58.5,58.5,0,0,0,9.67,8.75,77.29,77.29,0,0,0,22.94,11.27,116.71,116.71,0,0,0,24.69,4.76,157.55,157.55,0,0,0,24.86.15,202.21,202.21,0,0,0,24.48-3.27,223,223,0,0,0,23.85-6q11.74-3.63,23.09-8.32c7.53-3.16,14.93-6.65,22.18-10.4q-10.89,5.61-22.21,10.34t-23.1,8.26A217.43,217.43,0,0,1,112,234.34a158.27,158.27,0,0,1-24.82-.22,115.85,115.85,0,0,1-24.61-4.81,77,77,0,0,1-22.79-11.26,58.43,58.43,0,0,1-9.57-8.7l-2.09-2.5c-.68-.85-1.27-1.77-1.9-2.65l-.94-1.34c-.3-.45-.55-.94-.83-1.4l-1.64-2.83-1.38-3c-.22-.5-.48-1-.67-1.49l-.56-1.53c-.36-1-.78-2-1.09-3.08l-.85-3.14a58,58,0,0,1-1.65-12.81,76.78,76.78,0,0,1,3.81-25.1,115.93,115.93,0,0,1,10.13-22.9,158.92,158.92,0,0,1,14-20.44A216.7,216.7,0,0,1,79.68,70.85q9.67-7.55,20-14.18t21.17-12.26Q131.7,38.78,143,34t23-8.31a216.81,216.81,0,0,1,48.23-9.24,157.87,157.87,0,0,1,24.79.14,116.94,116.94,0,0,1,24.58,4.74,76.73,76.73,0,0,1,22.78,11.2A57.89,57.89,0,0,1,296,41.22l2.09,2.49c.68.84,1.27,1.76,1.91,2.64l.94,1.34c.3.45.55.93.83,1.4l1.64,2.82,1.39,3c.23.49.48,1,.68,1.48l.57,1.54c.36,1,.78,2,1.09,3.07L308,64.1a58.18,58.18,0,0,1,1.68,12.83,76.79,76.79,0,0,1-3.75,25.14,116.22,116.22,0,0,1-10.09,23,157.77,157.77,0,0,1-14,20.51A216.92,216.92,0,0,1,246.77,180q-9.66,7.58-20,14.25t-21.18,12.35q10.85-5.73,21.21-12.29t20-14.21A225.27,225.27,0,0,0,265.38,163.94Z"/><path d="M268.67,163.13a208.4,208.4,0,0,0,17.4-19.07,165.91,165.91,0,0,0,14.69-21.45,122,122,0,0,0,10.61-24c.32-1.06.68-2.11,1-3.18l.81-3.24.4-1.62c.12-.54.21-1.09.31-1.64l.61-3.29c.19-1.1.28-2.23.42-3.34s.32-2.22.33-3.35a63.63,63.63,0,0,0,.14-6.77c-.05-1.13,0-2.26-.14-3.39l-.35-3.4a14,14,0,0,0-.24-1.69L314.31,62c-.23-1.12-.37-2.26-.71-3.36l-.9-3.31c-.32-1.1-.77-2.17-1.15-3.25L311,50.44c-.21-.53-.48-1-.71-1.57l-1.46-3.13-1.73-3c-.3-.5-.56-1-.88-1.49l-1-1.41c-.67-.93-1.29-1.9-2-2.8L301,34.42a32.74,32.74,0,0,0-2.35-2.5l-1.2-1.22a15.32,15.32,0,0,0-1.25-1.17l-2.59-2.23c-.84-.77-1.8-1.37-2.7-2.06a65.9,65.9,0,0,0-5.64-3.77c-.94-.63-2-1.1-2.94-1.65s-2-1.09-3-1.56l-3.05-1.39c-.51-.23-1-.47-1.53-.69l-1.56-.6-3.12-1.19c-1-.38-2.1-.69-3.16-1a121.79,121.79,0,0,0-25.82-5.08,165.21,165.21,0,0,0-26-.24,211.53,211.53,0,0,0-25.64,3.34,236.23,236.23,0,0,0-25,6.2q-12.3,3.78-24.19,8.64T117,37.06q-11.34,6-22.17,12.92T73.91,64.92a237.63,237.63,0,0,0-19.35,17,211.86,211.86,0,0,0-17.37,19.15,165.28,165.28,0,0,0-14.65,21.51A122.12,122.12,0,0,0,12,146.67c-.32,1.06-.67,2.11-1,3.18l-.79,3.25-.4,1.62c-.12.54-.21,1.09-.31,1.64l-.6,3.3c-.2,1.1-.27,2.23-.42,3.34s-.31,2.23-.32,3.36A66.53,66.53,0,0,0,8,173.14c.06,1.13,0,2.26.16,3.39l.35,3.4a16,16,0,0,0,.25,1.69l.32,1.69a32.18,32.18,0,0,0,.71,3.35l.91,3.32c.33,1.1.77,2.16,1.15,3.25l.6,1.61c.21.54.48,1,.72,1.57l1.46,3.13,1.74,3c.29.49.56,1,.88,1.48l1,1.41c.68.93,1.3,1.9,2,2.79l2.22,2.64a30.64,30.64,0,0,0,2.35,2.49l1.2,1.22a15.19,15.19,0,0,0,1.25,1.16l2.59,2.22c.84.77,1.81,1.37,2.71,2.06a65.67,65.67,0,0,0,5.64,3.75c.93.63,2,1.09,2.94,1.64s2,1.09,3,1.55l3,1.38c.51.23,1,.47,1.53.68l1.55.6,3.12,1.18c1,.38,2.1.68,3.16,1a122.07,122.07,0,0,0,25.8,5,163.48,163.48,0,0,0,26,.17,210.56,210.56,0,0,0,25.59-3.4,233.13,233.13,0,0,0,24.94-6.25q12.27-3.81,24.14-8.69t23.19-10.88q-11.39,5.87-23.22,10.81t-24.15,8.63a235.3,235.3,0,0,1-24.94,6.19,210.54,210.54,0,0,1-25.58,3.33,164.19,164.19,0,0,1-25.95-.24,122,122,0,0,1-25.72-5.05c-1.05-.35-2.11-.65-3.15-1l-3.1-1.19-1.54-.59c-.52-.21-1-.46-1.52-.68l-3-1.39c-1-.46-2-1-3-1.55s-2-1-2.92-1.64a64.66,64.66,0,0,1-5.59-3.73c-.89-.69-1.85-1.28-2.68-2.05l-2.57-2.21a13.49,13.49,0,0,1-1.23-1.16L25.17,213a28.7,28.7,0,0,1-2.32-2.48l-2.19-2.61c-.71-.89-1.32-1.85-2-2.77l-1-1.4c-.32-.47-.58-1-.87-1.47l-1.71-3-1.45-3.09c-.23-.52-.5-1-.71-1.55l-.58-1.61c-.38-1.07-.82-2.12-1.14-3.21l-.89-3.29a31.07,31.07,0,0,1-.7-3.32l-.31-1.67a13.43,13.43,0,0,1-.24-1.67l-.34-3.37c-.15-1.12-.09-2.24-.15-3.37-.12-2.25,0-4.48.14-6.71,0-1.13.22-2.22.33-3.33s.23-2.22.43-3.31l.6-3.28c.1-.54.19-1.09.31-1.63l.4-1.61.79-3.22c.29-1.06.64-2.1,1-3.16A121.25,121.25,0,0,1,23.14,123a164.68,164.68,0,0,1,14.65-21.39,210.17,210.17,0,0,1,17.35-19A236.12,236.12,0,0,1,74.47,65.66q10.11-7.89,20.87-14.83T117.47,38c7.58-3.92,15.3-7.56,23.17-10.86s15.92-6.15,24.09-8.68a234,234,0,0,1,24.89-6.24,211.57,211.57,0,0,1,25.53-3.4A166.21,166.21,0,0,1,241.07,9a120.92,120.92,0,0,1,25.69,5c1.05.34,2.1.64,3.14,1l3.1,1.18,1.55.59c.51.21,1,.45,1.52.68l3,1.37c1,.46,2,1,3,1.54s2,1,2.92,1.63a66.28,66.28,0,0,1,5.6,3.72c.89.68,1.84,1.27,2.68,2l2.57,2.2a12.14,12.14,0,0,1,1.23,1.15l1.2,1.21a30.23,30.23,0,0,1,2.33,2.47l2.19,2.61c.71.88,1.32,1.84,2,2.76l1,1.4c.32.47.58,1,.88,1.46l1.71,3,1.45,3.09c.24.52.51,1,.72,1.55l.58,1.6c.38,1.07.82,2.13,1.15,3.22l.9,3.28c.34,1.09.48,2.21.71,3.32l.31,1.67a13.87,13.87,0,0,1,.24,1.68l.35,3.37c.16,1.12.1,2.25.16,3.37a65.42,65.42,0,0,1-.13,6.72c0,1.13-.21,2.23-.32,3.34s-.22,2.22-.41,3.31l-.6,3.28c-.1.55-.19,1.1-.3,1.64l-.4,1.61L312,95.26c-.28,1.06-.64,2.11-.95,3.16a121.38,121.38,0,0,1-10.53,24,164.36,164.36,0,0,1-14.61,21.45A209.48,209.48,0,0,1,268.54,163a233.3,233.3,0,0,1-19.31,17q-10.09,7.92-20.86,14.91t-22.14,12.9q11.34-6,22.17-12.85T249.31,180A231.53,231.53,0,0,0,268.67,163.13Z"/><path d="M8.79,203.32c.3.52.58,1.05.91,1.55l1,1.47c.7,1,1.35,2,2.1,2.92l2.3,2.74a35.64,35.64,0,0,0,2.45,2.61l1.26,1.27a13.5,13.5,0,0,0,1.3,1.21l2.7,2.32a13.26,13.26,0,0,0,1.4,1.1l1.42,1.05a77.6,77.6,0,0,0,12.06,7.25l3.18,1.45c.53.23,1.06.49,1.59.71l1.63.62,3.25,1.24c1.09.4,2.2.71,3.29,1.07a127,127,0,0,0,26.92,5.25,173,173,0,0,0,27.12.2,218.84,218.84,0,0,0,26.71-3.54,243.72,243.72,0,0,0,26-6.51q12.81-4,25.18-9.06t24.21-11.35Q195,215,182.6,220.18t-25.2,9a243.05,243.05,0,0,1-26,6.45,218.39,218.39,0,0,1-26.69,3.47,172.51,172.51,0,0,1-27.08-.27,127.2,127.2,0,0,1-26.83-5.29c-1.1-.37-2.2-.68-3.29-1.08l-3.23-1.24-1.62-.62c-.53-.23-1.05-.48-1.58-.72l-3.16-1.44a77.8,77.8,0,0,1-12-7.24l-1.42-1a14.46,14.46,0,0,1-1.38-1.1l-2.68-2.31a13.28,13.28,0,0,1-1.28-1.21l-1.25-1.26a31.16,31.16,0,0,1-2.42-2.59L13.2,209c-.73-.92-1.37-1.93-2.07-2.89l-1-1.46c-.33-.49-.6-1-.91-1.53L7.42,200l-1.51-3.23c-.24-.54-.52-1.07-.74-1.62l-.61-1.67c-.39-1.12-.85-2.22-1.19-3.36l-.93-3.43a33.74,33.74,0,0,1-.73-3.46l-.32-1.74a15.08,15.08,0,0,1-.26-1.75l-.36-3.51a15,15,0,0,1-.11-1.76l0-1.76a77.17,77.17,0,0,1,.92-13.94l.62-3.42c.11-.56.2-1.14.32-1.7L2.9,152l.83-3.36c.29-1.11.66-2.2,1-3.3a127,127,0,0,1,11-25A171.48,171.48,0,0,1,31,98,217.29,217.29,0,0,1,49.1,78.1,242.46,242.46,0,0,1,69.26,60.47Q79.81,52.24,91,45t23.1-13.39c7.9-4.08,16-7.88,24.17-11.32s16.62-6.41,25.14-9a244.6,244.6,0,0,1,26-6.5A218.11,218.11,0,0,1,216.06,1.2a172,172,0,0,1,27,.2,126.88,126.88,0,0,1,26.81,5.22c1.1.36,2.2.67,3.28,1.07l3.23,1.23,1.62.62,1.58.71,3.17,1.44a77.72,77.72,0,0,1,12,7.2l1.42,1A12.94,12.94,0,0,1,297.56,21l2.67,2.3a12.31,12.31,0,0,1,1.29,1.21l1.25,1.25a32.94,32.94,0,0,1,2.43,2.58l2.29,2.72c.74.93,1.38,1.93,2.07,2.89l1,1.46c.33.49.6,1,.91,1.53L313.29,40l1.52,3.23c.24.54.52,1.07.74,1.62l.61,1.67c.4,1.12.86,2.22,1.2,3.35l.94,3.43a34.55,34.55,0,0,1,.74,3.47l.32,1.74a13,13,0,0,1,.26,1.75l.37,3.52a12.85,12.85,0,0,1,.11,1.75l0,1.76a77.37,77.37,0,0,1-.88,14l-.62,3.42c-.11.57-.2,1.15-.32,1.71l-.41,1.69-.82,3.36c-.3,1.12-.67,2.2-1,3.31a126.79,126.79,0,0,1-11,25.06,171.64,171.64,0,0,1-15.23,22.39,219.26,219.26,0,0,1-18.08,19.94,243,243,0,0,1-20.14,17.7q-10.53,8.28-21.77,15.56t-23.09,13.46q11.82-6.24,23.13-13.4T251.77,180A245,245,0,0,0,272,162.32a218.21,218.21,0,0,0,18.14-19.91A173.19,173.19,0,0,0,305.42,120a127.74,127.74,0,0,0,11.05-25.1c.33-1.11.71-2.2,1-3.32l.84-3.37.41-1.69c.12-.57.22-1.15.33-1.72l.63-3.44a79,79,0,0,0,.92-14l-.05-1.77a13.29,13.29,0,0,0-.11-1.78l-.36-3.54a13.1,13.1,0,0,0-.26-1.76l-.32-1.76a32.51,32.51,0,0,0-.74-3.5l-.94-3.46c-.34-1.14-.8-2.25-1.2-3.38L316,44.71c-.22-.56-.5-1.09-.74-1.64l-1.53-3.26-1.8-3.12c-.3-.51-.58-1-.91-1.55l-1-1.47c-.7-1-1.34-2-2.09-2.92L305.59,28a30.25,30.25,0,0,0-2.45-2.61l-1.25-1.28a15,15,0,0,0-1.3-1.22l-2.7-2.33a14.59,14.59,0,0,0-1.39-1.1l-1.43-1.05A78.53,78.53,0,0,0,283,11.12l-3.19-1.45c-.53-.24-1.05-.5-1.59-.72l-1.62-.63-3.26-1.25c-1.08-.4-2.19-.72-3.29-1.08A127.35,127.35,0,0,0,243.13.68,172.34,172.34,0,0,0,216,.41a219.36,219.36,0,0,0-26.75,3.47,244,244,0,0,0-26.08,6.46q-12.82,3.93-25.24,9T113.63,30.66Q101.81,36.93,90.5,44.14T68.7,59.73A242.1,242.1,0,0,0,48.52,77.46a220.32,220.32,0,0,0-18.12,20A172,172,0,0,0,15.13,119.9a127.27,127.27,0,0,0-11,25.16c-.33,1.11-.7,2.2-1,3.32l-.83,3.38-.42,1.7c-.12.56-.21,1.14-.32,1.71l-.62,3.45a78.37,78.37,0,0,0-.89,14l.05,1.78a15,15,0,0,0,.11,1.77l.37,3.54a15.13,15.13,0,0,0,.27,1.77l.32,1.76a34.38,34.38,0,0,0,.75,3.49l1,3.47c.34,1.14.81,2.25,1.21,3.38l.62,1.69c.22.55.5,1.09.75,1.63L7,200.21Z"/><circle cx="149.92" cy="70.13" r="4.81"/><circle cx="146.51" cy="120.07" r="3.41"/><circle cx="191.04" cy="87.04" r="2.11"/><circle cx="88.54" cy="178.54" r="2.11"/></svg>