<svg xmlns="http://www.w3.org/2000/svg" viewBox="0 0 400 360.08"><title>3</title><path d="M189.5,360.08A189.49,189.49,0,0,1,0,170.59C0,76.53,76.53,0,170.59,0c84.68,0,153.57,68.89,153.57,153.57,0,76.24-62,138.26-138.26,138.26A124.61,124.61,0,0,1,61.43,167.36,112.19,112.19,0,0,1,173.5,55.29a101,101,0,0,1,100.9,100.9,91,91,0,0,1-90.85,90.86,81.91,81.91,0,0,1-81.81-81.82,73.75,73.75,0,0,1,73.67-73.67,66.42,66.42,0,0,1,66.34,66.35A59.81,59.81,0,0,1,182,217.66a53.88,53.88,0,0,1-53.82-53.82,48.54,48.54,0,0,1,48.48-48.48A43.72,43.72,0,0,1,220.33,159,39.4,39.4,0,0,1,181,198.39a35.5,35.5,0,0,1-35.45-35.46,32,32,0,0,1,31.95-32,28.83,28.83,0,0,1,28.8,28.8,26,26,0,0,1-26,26,23.43,23.43,0,0,1-23.41-23.41A21.13,21.13,0,0,1,178,141.22a19.06,19.06,0,0,1,19,19,17.2,17.2,0,0,1-17.18,17.18,15.52,15.52,0,0,1-15.5-15.5,14,14,0,0,1,14-14A12.65,12.65,0,0,1,191,160.58,11.42,11.42,0,0,1,179.6,172a10.32,10.32,0,0,1-10.32-10.31,9.34,9.34,0,0,1,9.33-9.33,8.45,8.45,0,0,1,8.43,8.44,7.64,7.64,0,0,1-7.63,7.63,6.92,6.92,0,0,1-6.91-6.91,6.27,6.27,0,0,1,6.26-6.26,5.68,5.68,0,0,1,5.68,5.68,5.16,5.16,0,0,1-5.16,5.15,4.68,4.68,0,0,1-4.67-4.68,4.25,4.25,0,0,1,4.25-4.26,3.88,3.88,0,0,1,3.87,3.88,3.53,3.53,0,0,1-3.53,3.52,3.21,3.21,0,0,1-3.21-3.21,2.94,2.94,0,0,1,2.93-2.94,2.69,2.69,0,0,1,2.69,2.68,2.46,2.46,0,0,1-2.46,2.46,2.25,2.25,0,0,1-2.25-2.25,2.05,2.05,0,0,1,1.16-1.86,2.09,2.09,0,0,0-1.23,1.91,2.38,2.38,0,0,0,2.37,2.37,2.69,2.69,0,0,0,2.69-2.68,3,3,0,0,0-3-3,3.41,3.41,0,0,0-3.41,3.41,3.84,3.84,0,0,0,3.83,3.84,4.33,4.33,0,0,0,4.32-4.31,4.84,4.84,0,0,0-4.84-4.84,5.42,5.42,0,0,0-5.42,5.42,6.07,6.07,0,0,0,6.07,6.07,6.8,6.8,0,0,0,6.79-6.79,7.61,7.61,0,0,0-7.59-7.6,8.5,8.5,0,0,0-8.49,8.49,9.49,9.49,0,0,0,9.48,9.47,10.58,10.58,0,0,0,10.57-10.57,11.81,11.81,0,0,0-11.8-11.8,13.17,13.17,0,0,0-13.15,13.16,14.68,14.68,0,0,0,14.66,14.66,16.36,16.36,0,0,0,16.34-16.34,18.22,18.22,0,0,0-18.2-18.2,20.3,20.3,0,0,0-20.27,20.27,22.6,22.6,0,0,0,22.57,22.57,25.15,25.15,0,0,0,25.12-25.12,28,28,0,0,0-28-28,31.14,31.14,0,0,0-31.11,31.11A34.65,34.65,0,0,0,181,197.54,38.54,38.54,0,0,0,219.49,159a42.88,42.88,0,0,0-42.83-42.84A47.69,47.69,0,0,0,129,163.84a53,53,0,0,0,53,53,59,59,0,0,0,58.91-58.91,65.58,65.58,0,0,0-65.5-65.51,72.91,72.91,0,0,0-72.83,72.83,81.06,81.06,0,0,0,81,81,90.11,90.11,0,0,0,90-90A100.18,100.18,0,0,0,173.5,56.13,111.35,111.35,0,0,0,62.27,167.36,123.77,123.77,0,0,0,185.9,291c75.77,0,137.42-61.65,137.42-137.42C323.32,69.36,254.8.84,170.59.84,77,.84.84,77,.84,170.59c0,104,84.63,188.65,188.66,188.65,115.6,0,209.66-94.05,209.66-209.66H400a210.5,210.5,0,0,1-210.5,210.5ZM179,160.58a.67.67,0,0,0-.67.67.78.78,0,0,0,.79.78.92.92,0,0,0,.91-.89h-.48A.56.56,0,0,0,179,160.58Z"/><path d="M187.56,324A156.3,156.3,0,0,1,31.25,167.71C31.25,90.12,94.37,27,172,27A126.82,126.82,0,0,1,298.64,153.67a114.17,114.17,0,0,1-114,114.05A102.79,102.79,0,0,1,81.92,165,92.55,92.55,0,0,1,174.36,72.6a83.32,83.32,0,0,1,83.23,83.23,75,75,0,0,1-74.94,74.95,67.56,67.56,0,0,1-67.48-67.49,60.84,60.84,0,0,1,60.77-60.77,54.79,54.79,0,0,1,54.72,54.73,49.34,49.34,0,0,1-49.28,49.29,44.45,44.45,0,0,1-44.4-44.4,40,40,0,0,1,40-40,36.07,36.07,0,0,1,36,36,32.49,32.49,0,0,1-32.46,32.46,29.28,29.28,0,0,1-29.25-29.25A26.4,26.4,0,0,1,177.65,135a23.78,23.78,0,0,1,23.75,23.76A21.43,21.43,0,0,1,180,180.2a19.33,19.33,0,0,1-19.31-19.3,17.44,17.44,0,0,1,17.41-17.42,15.73,15.73,0,0,1,15.71,15.71,14.19,14.19,0,0,1-14.17,14.17,12.81,12.81,0,0,1-12.79-12.79A11.56,11.56,0,0,1,178.39,149a10.44,10.44,0,0,1,10.42,10.42,9.44,9.44,0,0,1-9.42,9.42,8.52,8.52,0,0,1-8.51-8.51,7.71,7.71,0,0,1,7.7-7.69,7,7,0,0,1,6.95,7,6.29,6.29,0,0,1-6.29,6.29,5.7,5.7,0,0,1-5.7-5.7,5.17,5.17,0,0,1,5.16-5.17,4.7,4.7,0,0,1,4.69,4.69,4.26,4.26,0,0,1-4.25,4.25,3.86,3.86,0,0,1-3.86-3.86,3.51,3.51,0,0,1,3.5-3.51,3.19,3.19,0,0,1,3.2,3.19,2.91,2.91,0,0,1-2.91,2.91,2.65,2.65,0,0,1-2.65-2.65,2.42,2.42,0,0,1,2.42-2.42,2.21,2.21,0,0,1,2.21,2.21,2,2,0,0,1-2,2,1.86,1.86,0,0,1-1.86-1.86,1.71,1.71,0,0,1,1-1.54,1.74,1.74,0,0,0-1,1.58,2,2,0,0,0,2,2,2.22,2.22,0,0,0,2.21-2.22,2.5,2.5,0,0,0-2.5-2.5,2.82,2.82,0,0,0-2.81,2.82,3.18,3.18,0,0,0,3.17,3.17,3.56,3.56,0,0,0,3.55-3.56,4,4,0,0,0-4-4,4.47,4.47,0,0,0-4.47,4.47,5,5,0,0,0,5,5,5.6,5.6,0,0,0,5.6-5.6,6.27,6.27,0,0,0-6.26-6.27,7,7,0,0,0-7,7,7.82,7.82,0,0,0,7.81,7.82,8.74,8.74,0,0,0,8.73-8.73,9.75,9.75,0,0,0-9.73-9.73,10.86,10.86,0,0,0-10.85,10.85,12.11,12.11,0,0,0,12.09,12.1,13.5,13.5,0,0,0,13.48-13.48,15,15,0,0,0-15-15,16.74,16.74,0,0,0-16.72,16.72A18.64,18.64,0,0,0,180,179.51a20.74,20.74,0,0,0,20.72-20.72,23.08,23.08,0,0,0-23.06-23.06A25.69,25.69,0,0,0,152,161.39a28.57,28.57,0,0,0,28.55,28.55,31.79,31.79,0,0,0,31.76-31.76A35.37,35.37,0,0,0,177,122.85a39.34,39.34,0,0,0-39.3,39.29,43.76,43.76,0,0,0,43.71,43.71A48.65,48.65,0,0,0,230,157.25a54.09,54.09,0,0,0-54-54,60.14,60.14,0,0,0-60.08,60.07,66.86,66.86,0,0,0,66.79,66.79,74.34,74.34,0,0,0,74.25-74.25,82.64,82.64,0,0,0-82.54-82.54A91.85,91.85,0,0,0,82.62,165a102.09,102.09,0,0,0,102,102A113.48,113.48,0,0,0,298,153.67a126.13,126.13,0,0,0-126-126c-77.2,0-140,62.81-140,140,0,85.81,69.81,155.61,155.62,155.61,95.36,0,172.94-77.58,172.94-172.94h.7A173.65,173.65,0,0,1,187.56,324ZM178.9,159.46a.55.55,0,0,0-.55.54.65.65,0,0,0,.65.65.75.75,0,0,0,.75-.74h-.4A.45.45,0,0,0,178.9,159.46Z"/></svg>