<svg xmlns="http://www.w3.org/2000/svg" viewBox="0 0 308.98 308.98"><title>telegram</title><path d="M309,153.87c0-1.47,0-2.92-.08-4.38,0-.45,0-.91-.05-1.37-.06-1.47-.14-2.94-.24-4.4l0-.42h0a154.39,154.39,0,1,0-98.09,155.22h0l.2-.08,1.49-.59,1.64-.67,1.52-.64,1.65-.73,1.41-.62q1.4-.63,2.76-1.29l1.36-.67,1.65-.82,1.42-.73,1.6-.84,1.36-.73,2.19-1.22,1.58-.92,1.78-1,1.29-.79,1.6-1,1.25-.8,1.84-1.21,1.19-.8,2.31-1.6,1.11-.8c.54-.39,1.09-.79,1.62-1.19l1.13-.83,1.72-1.32.92-.72c.83-.65,1.66-1.32,2.48-2l.86-.72,1.72-1.45,1-.85,1.66-1.47.85-.77c.8-.73,1.6-1.47,2.39-2.22l.47-.46c.65-.62,1.3-1.25,1.93-1.89l.81-.8,1.63-1.68.75-.78c.7-.74,1.4-1.48,2.08-2.23l.2-.22c.76-.83,1.5-1.67,2.24-2.52l.6-.7c.55-.64,1.09-1.28,1.63-1.93l.64-.77c.6-.73,1.19-1.46,1.77-2.21l.35-.43c.71-.9,1.41-1.81,2.09-2.73l.36-.48c.56-.76,1.12-1.53,1.67-2.3l.52-.72,1.59-2.3.37-.53c.65-1,1.3-2,1.93-3l0,0q.92-1.42,1.8-2.88c.13-.21.26-.42.38-.63.5-.82,1-1.64,1.46-2.47.11-.19.23-.38.34-.58,1.16-2,2.29-4.1,3.36-6.19.08-.16.16-.32.25-.48.45-.9.9-1.8,1.34-2.7l.28-.6c.5-1,1-2.08,1.47-3.12v0c.51-1.12,1-2.25,1.48-3.38l.09-.22c.43-1,.84-2,1.25-3.05.07-.19.15-.38.22-.56.4-1,.78-2,1.16-3l.1-.27q1.25-3.41,2.33-6.9c.06-.16.11-.33.16-.5.31-1,.62-2,.92-3.08l.12-.42q1-3.52,1.83-7.13c0-.12.06-.25.08-.37.25-1.07.48-2.14.7-3.22,0-.17.08-.34.11-.5q.74-3.65,1.31-7.35c0-.06,0-.11,0-.16.18-1.15.34-2.31.49-3.46,0-.19,0-.37.07-.55.14-1.15.27-2.31.39-3.47a1.11,1.11,0,0,0,0-.19q.39-3.75.58-7.56l0-.55q.07-1.67.12-3.36c0-.14,0-.29,0-.44,0-1.27.05-2.55.05-3.83C309,154.28,309,154.07,309,153.87ZM209.3,229.71l-47.12-35.58-27.93,28.16L139.49,177l79.77-75.82-100,67.09L64.43,150.12,244.55,79.27Z"/></svg>