<svg xmlns="http://www.w3.org/2000/svg" viewBox="0 0 286.32 515.22"><title>telescope</title><path d="M273.23,498a199.06,199.06,0,0,0-8.17-29.82c-1.57-4.27-2.74-8.69-4.08-13-.09-.29-6.7-22.29-7.58-24.94-3.2-9.72-6.36-19.45-9.56-29.17q-23.42-71.19-45.57-142.78c-.45-1.43-1.09-2.82-.64-4.43a3.8,3.8,0,0,0-.36-1.84q-2.11-7.26-4.26-14.5a12.58,12.58,0,0,1-.58-4.23c.16-3.85-.81-5.3-4.4-6.71A1.4,1.4,0,0,1,187,225.2a18.6,18.6,0,0,1-.2-2.86,3.69,3.69,0,0,0-2.48-4.19c-2.19-.83-2.59-2.25-2.49-4.42.45-9.67.72-19.34,1.06-29,.07-1.83.08-1.82,2-2.15.55-.1,1.1-.21,1.64-.36,1.94-.51,1.85-.52,2-2.5a45.12,45.12,0,0,1,1.71-8.44,97.14,97.14,0,0,0,3.28-13,6.4,6.4,0,0,1,.59-1.81,10.1,10.1,0,0,0,.59-8.16c-.95-2.53.44-4.31,1.37-6.28.35-.75,1.11-.43,1.73-.37,4.54.42,9.09.72,13.61,1.31a7.09,7.09,0,0,0,7-2.79,16,16,0,0,0,3.47-11.2,9.24,9.24,0,0,0-6.26-8.33,37,37,0,0,0-8.82-2.23c-1.72-.24-3.07-.65-3.51-2.57-.12-.52-.47-1.14-1.08-1.18-.8-.06-1,.69-1.19,1.29-.3,1-1,1.12-1.86,1q-8.87-1.48-17.74-2.92a1.64,1.64,0,0,1-1.39-1.12,24.83,24.83,0,0,0-12-12.56c-2.4-1.24-2.54-1.26-4.73.69.78-3.32-1.82-4.79-3.44-6.77-.05-.06-.11-.16-.17-.16-3-.44-3.73-3.67-6-5-.73-.44-.7-1.18-.61-1.93.47-3.72,1-7.45,1.37-11.18.11-1.1,1.33-1.28,1.46-2,.38-2.16,1.73-1.53,3-1.34,5.7.83,11.4,1.61,17.1,2.41.39.06.79.08,1.19.13.84.09,1.16-.33,1.15-1.11s0-1.44,0-2.16a17.53,17.53,0,0,1,0-1.92c.45-4,1.27-4.59,5.14-4q3.92.63,7.81,1.32c1.05.18,2.08.35,2.86-.63a2.43,2.43,0,0,1,2.84-.64,6.41,6.41,0,0,0,3.71,0A2.53,2.53,0,0,1,204,67c.88,1.38,2.63,1.39,4,2h0c6,.21,11.91.7,17.87.8,4.55.07,13.26,2.42,16.7-1.08a5.32,5.32,0,0,1,.88-.73.65.65,0,0,1,0-.44c.24-1,1.33-.59,2-.63a18.4,18.4,0,0,1,5.2.78c1.87.44,3.43.55,4.94-1.13,1.28-1.42,3.27-.47,3.52,1.47.29,2.33,1.43,3.09,3.56,2.22,4.5-1.86,9-3.83,13.48-5.68a1.8,1.8,0,0,0,1.26-2.21c-.25-2.07-.34-4.15-.66-6.2a3.81,3.81,0,0,1,1.22-3.44c4-4.25,6.29-9.45,8.38-14.77v0c-.1-.2-.2-.4-.29-.6-.18-.43-.32-.77-.43-1.1a6.65,6.65,0,0,1-.6-.81c-2.16-3.77-6-5.3-11-3.72A2.49,2.49,0,0,0,271.87,34a8.3,8.3,0,0,1-1.07,3.15c-1.17,2.46-2.31,4.93-3.52,7.36a5.91,5.91,0,0,0-.6,3.48c.25,2,.17,2-1.75,1.75a3.56,3.56,0,0,1-.47-.1c-1.17-.33-2.09-.34-1.95,1.31a.86.86,0,0,1-.79,1c-1.2.12-2.42.26-3.22-1a5.07,5.07,0,0,0-4.72-2.3,30.91,30.91,0,0,1-3.34-.28c-1.31-.11-1.69-1.71-3.05-1.72-1.2,0-2.24.71-3.52.48-3.23-.59-6.48-1-9.72-1.48-.63-.09-1.45-.07-1.7-.72-.53-1.38-1.74-1.51-2.88-1.83s-2.17-.55-3.24-.89c-.81-.26-1.24-.74-.56-1.59a2.75,2.75,0,0,0,.35-2.93,2.89,2.89,0,0,1,.06-2.09A103.46,103.46,0,0,1,230,24.81c.08-.2.23-.44.73-.31.41.72,0,1.58,0,2.39.08,1.31,1.19,1.06,2,1.3s1.28,0,1.24-.68c-.1-2.12,1.58-3.39,2.22-5.14a2.09,2.09,0,0,1,2.56-1.56c3.86.54,7.82.41,11.56,1.78a1.51,1.51,0,0,0,2.23-1.07,14.08,14.08,0,0,0,.94-5.4c-.13-2.28-.75-2.55-3-2.66-3.71-.18-7.67.46-10.8-2.4a.85.85,0,0,0-.22-.09c-1.59-.78-1.67-.82-1-2.39.49-1.08.44-1.81-.69-2.34s-1.73-.35-2.26.87a1.92,1.92,0,0,1-2,1.31c-1.2,0-2.4,0-3.59-.16-2.23-.23-4.45-.54-6.68-.78-.62-.07-1.44-.39-1.83.15-.93,1.25-2.13.89-3.28.73a76.85,76.85,0,0,1-9.77-1.79c-4.36-1.17-9-1.2-13.54-1.79a1.72,1.72,0,0,0-2.06,1.16,13.6,13.6,0,0,0-1.21,7.48c.31,2.14.52,2.32,2.71,2.64,7.36,1.08,14.71,2.21,22.11,3,.7.07,1.8.08,2,.49.74,1.37,2,1.09,3.1,1.33,1.45.3,1.57.5.88,1.92-1.3,2.66-2.68,5.28-3.95,8a2.57,2.57,0,0,1-2.34,1.72c-.85,0-1.53.33-1.59,1.4s-.76.83-1.42.7l-11.32-2.1c-.64-.12-1.3-.22-1.64-.85-1.13-2.07-3.21-2.32-5.17-2.46-2.8-.2-5.53-.8-8.3-1.18a4,4,0,0,1-3-3.21c-.09-.81,0-1.49,1.11-1.31.52.08,1.15.45,1.31-.44.12-.7-.35-1-.94-1.16-1.88-.57-3.65-1.24-3.43-3.75a.65.65,0,0,0-.59-.66.69.69,0,0,0-.8.69c-.2,2.08-1.95,2.12-3.37,2.57a11.69,11.69,0,0,1-1.19.08c-.69.13-.87.76-.35,1.2.29.25.73.33,1,.58.91.74.79,1.6-.21,2.28a5.07,5.07,0,0,1-4.07.71c-7.77-1.49-15.57-2.88-23.35-4.32C142,20,135.25,18.72,128.48,17.48c-1.22-.22-2.61-.42-2.74-1.85-.15-1.65-1.08-1.91-2.36-2.05a26.62,26.62,0,0,1-3.07-.53c-1-.23-1.75-.08-2.18.91s-1.3,1.12-2.37.81c-4.6-1.35-9.22-2.64-13.85-3.91a2.2,2.2,0,0,1-1.85-1.61A1.64,1.64,0,0,0,98,8a11.8,11.8,0,0,1-4.27-.36Q70.63,4,47.53.29C47,.2,46.42.17,45.87.05c-.92-.2-1.34.23-1.51,1.06-.1.47-.23.94-.33,1.41A210.45,210.45,0,0,0,39.86,29c-.52,5.58-.75,11.17-.73,16.78,0,1.24.31,2,1.68,2a9.38,9.38,0,0,1,1.18.2q23.26,3.48,46.51,7c1.39.22,2.9.08,4.13,1,.67.53,1,0,1.31-.51a2.27,2.27,0,0,1,2.43-1.1q6.81.54,13.64,1c1.19.08,1.51.63,1.3,1.72-.33,1.72-.63,3.46-.9,5.2a2,2,0,0,0,1.49,2.58,17.39,17.39,0,0,0,2.58.54c4.1.71,8.2,1.39,12.3,2.1,2.69.47,3,.85,2.9,3.58a11.4,11.4,0,0,1-.18,1.43L127,88.21a3,3,0,0,1-.75,2,3.88,3.88,0,0,0-1.07,2.6q-1.44,9-2.92,18a4.37,4.37,0,0,1-.66,2.28c-2.46,2.9-2.43,6.32-2.09,9.79a16.82,16.82,0,0,1,0,3.82c-.49,3.88-.94,7.78-1.42,11.67-.15,1.21-.34,2.39,1,3.14.72.4.75,1.19.7,1.92-.37,5,.73,9.86,1.53,14.75a3.13,3.13,0,0,0,2,2.75c.44.18.82.49,1.27.67a2,2,0,0,1,1.2,2.49c-.65,3.79-1.18,7.59-1.81,11.38-.35,2.11-.4,2.15-2.65,1.84a73.78,73.78,0,0,0-8.13-.63,24.46,24.46,0,0,0-7.85.79,4.4,4.4,0,0,0-3.51,4c-.29,3-.67,6-1.12,9a3.47,3.47,0,0,0,1.52,3.52,20.93,20.93,0,0,0,5.71,3,79.16,79.16,0,0,0,10.39,2.89c1.82.39,1.83.44,1.57,2.22-.06.39-.15.78-.22,1.17-1.09,5.74-2.19,11.47-3.25,17.21a3.1,3.1,0,0,0,1.51,3.45,3.27,3.27,0,0,0,3.79-.5,3.68,3.68,0,0,0,1-2.6c.93-6,1.84-12,2.79-18,.32-2,.35-2.05,2.43-1.9,3,.22,6.07.36,9.11.28a37.64,37.64,0,0,0,6.43-.69,3.62,3.62,0,0,0,3.29-3.5,62.31,62.31,0,0,1,1.34-7.8c.57-2.35-.27-3.84-2.2-5a31.63,31.63,0,0,0-7.28-3.05,76.35,76.35,0,0,0-8.16-2c-1-.19-1.54-.6-1.34-1.76.77-4.42,1.52-8.83,2.19-13.26a1.53,1.53,0,0,1,2-1.49c.64.08,1.26.26,1.9.3,2.62.13,4-1.33,3.62-3.93a4,4,0,0,1,.63-2.48c1.24-2.77,2.71-5.44,3.2-8.5.32-2,.38-2,2.49-1.69,5.23.69,10.46,1.39,15.7,2,2.21.28,2.23.25,2.7-1.91.52-2.42,1.06-4.84,1.52-7.27.21-1.14.72-1.72,1.92-1.6.4,0,.8,0,1.2,0,1.73.06,1.81.15,1.12,1.8q-3.22,7.76-6.5,15.49c-.77,1.8-.81,1.8-2.62,1.06-1.63-.66-3.24-1.37-4.87-2-.5-.2-1.08-.54-1.49.13a1.83,1.83,0,0,0-.19,1.61c.19.48.7.64,1.11.86,1.69.91,3.41,1.77,5.08,2.71,1.31.73,1.51,1.41.93,2.74a6.18,6.18,0,0,1-2.08,2.26c-1.58,1.26-2,2.62-1.12,4.19a4.5,4.5,0,0,1,.45,3.65c-.21.87-.39,1.81.62,2.33,1.39.72,1.47,1.86,1.34,3.24-.24,2.77-.08,2.94,2.6,4.05,2.07.86,2.09.86,2,3.1q-.42,14.76-.87,29.51a2.63,2.63,0,0,1-.4,1.93c-.46-.21-.94-.46-1.44-.64-.81-.28-1.54,0-1.7.8a4.9,4.9,0,0,1-2,3.37c-.24.16-.21.73-.29,1.12-.33,1.68-.6,2-2.33,2.06-1.51.1-3,.2-4.55.16a3.38,3.38,0,0,0-3.19,1.68c-1.42,2.22-3,4.34-4.43,6.56-2.91,4.5-5.07,9.44-8,13.93-.22.33-.53.74-.48,1.07.17,1.35-.65,2.27-1.27,3.27-9.75,15.51-19.46,31-29.26,46.51C78.81,336.54,52.74,376.55,27,416.74c-1.79,2.8-3.19,5.93-6,8a4.52,4.52,0,0,0-.85,1.15c-3.65,5.35-7.17,10.79-10.44,16.39A79.6,79.6,0,0,0,3.5,454.47a9.62,9.62,0,0,1-1.58,2.92C.45,459.15,0,461.1,1.44,463.1a1.76,1.76,0,0,1-.06,2.18,22.13,22.13,0,0,0-1.24,2.6,1.14,1.14,0,0,0,.33,1.5,1.31,1.31,0,0,0,1.37-.08,7.39,7.39,0,0,0,2.65-2.38,1.72,1.72,0,0,1,2-.86,3.11,3.11,0,0,0,4.07-1.94,8.67,8.67,0,0,1,2.93-3.44,7.5,7.5,0,0,0,1.35-1.35A225.44,225.44,0,0,0,29.65,439a41.06,41.06,0,0,0,4-7.38A19.87,19.87,0,0,1,35.47,428c7.53-12.09,15.44-23.93,23-36,28.38-45.45,57.72-90.3,86.16-135.72.62-1,1-2.21,2.57-2.16.51,0,.75-.56,1-.95q4.25-6.24,8.49-12.51a1.59,1.59,0,0,0,.18-1.91c-.65-1.32.36-2.51,1.83-2.36.95.09,1.89.31,2.83.49a84,84,0,0,0,12.07,1.43c-.44,1.27-.87,2.29-1.16,3.35-.72,2.64-.24,4.85,1.75,6a4.38,4.38,0,0,1,2.23,3.41c.2,1,.43,2,.62,3,3,16.77,6.39,33.46,9.87,50.14,2.62,12.52,5.34,25,7.76,37.59s5.88,25,7.13,37.89c.5,5.17,1.88,10.22,3.07,15.28a95.07,95.07,0,0,0,4.36,14.7,12.62,12.62,0,0,1,1.14,3.87c.18,2.17,1.21,3.85,3.53,4.27,1.09.19,1.4.85,1.6,1.78a6.85,6.85,0,0,0,1.1,2.89c.64.83,1.38.76,1.86-.18a5.33,5.33,0,0,0,.39-3.29,2.58,2.58,0,0,1,1.35-3,2.67,2.67,0,0,0,1.12-3.53,9,9,0,0,1-.34-5,6.06,6.06,0,0,0,0-1.9c-.57-5.89-1.25-11.77-2.21-17.61a101.56,101.56,0,0,0-2.89-13.36c-.28-.91-.44-2-1.57-2.21-1.9-.34-2.23-1.71-2.53-3.28q-4.5-22.71-9-45.41a3.1,3.1,0,0,1,.06-2.12c.48,1.4.85,2.43,1.19,3.48,10.23,31.75,20.37,63.51,30.72,95.22,5.13,15.73,9.42,31.74,15.27,47.24a3.17,3.17,0,0,1,.3,1.39,11.15,11.15,0,0,0,.82,4.69c1.58,5,3.1,9.93,4.81,14.83a86.19,86.19,0,0,0,6.32,14.76,10.47,10.47,0,0,1,1.34,3.3c.42,2.13,1.61,3.69,4,3.87a1.87,1.87,0,0,1,1.81,1.56,7.2,7.2,0,0,0,1.41,2.75c.72.78,1.46.65,1.84-.32a5.14,5.14,0,0,0,.07-3.31,2.54,2.54,0,0,1,.95-3.14,2.13,2.13,0,0,0,1.1-2.47C273.65,503.06,273.72,500.49,273.23,498ZM145.11,63.2a2.14,2.14,0,0,1-2.8,1.09c-1.39-.47-3-.48-3.56-2.26a1.49,1.49,0,0,0-1.58-.87,4.49,4.49,0,0,1-2.3-.57c-1.72-.83-2-.86-3.21.51a2.19,2.19,0,0,1-2.21,1c-2.44-.4-4.9-.71-7.36-1-1.16-.14-1.8-.58-1.43-1.86.11-.39.1-.8.18-1.19.38-1.79.58-2,2.43-1.67,5.21.85,10.4,1.77,15.6,2.66l11.82,2c.47.08,1.06.3,1.41.11,1.51-.79,3-.21,4.45,0,3.73.51,7.44,1.05,11.16,1.59.47.07.92.23,1.6.41-.27,1.74-.82,3.39,1.06,4.4a.67.67,0,0,1,.22.85.7.7,0,0,1-.78.42c-1.26-.17-2.53-.36-3.79-.57-3.39-.56-6.76-1.37-10.17-1.64-3.09-.25-5.24-1.92-7.36-3.78C146.73,61.26,146.4,61.22,145.11,63.2Z"/></svg>