<svg xmlns="http://www.w3.org/2000/svg" viewBox="0 0 50 50"><title>twitter</title><path d="M25,0A25,25,0,1,0,50,25,25,25,0,0,0,25,0ZM36.15,19.28c0,.25,0,.5,0,.75,0,7.6-5.79,16.36-16.37,16.36A16.26,16.26,0,0,1,11,33.81a12.62,12.62,0,0,0,1.38.08,11.54,11.54,0,0,0,7.14-2.46,5.76,5.76,0,0,1-5.37-4,5.88,5.88,0,0,0,2.6-.1,5.75,5.75,0,0,1-4.62-5.64.17.17,0,0,1,0-.07,5.71,5.71,0,0,0,2.6.72,5.76,5.76,0,0,1-2.56-4.79,5.68,5.68,0,0,1,.78-2.89,16.33,16.33,0,0,0,11.86,6,5.66,5.66,0,0,1-.15-1.31,5.76,5.76,0,0,1,10-3.94A11.35,11.35,0,0,0,38.25,14a5.75,5.75,0,0,1-2.53,3.19,11.76,11.76,0,0,0,3.3-.9,11.74,11.74,0,0,1-2.87,3Z"/></svg>